<svg xmlns="http://www.w3.org/2000/svg" viewBox="0 0 1000 1000"><path d="m116 223-23-43m23 43 45 31M116 82 93 40m23 183-45 39m45-180 45 32m22 42-22-42m22 42 45 32m22 42-22-42m-112 35 22-28m112 35 45 31M116 83l-45 39m112 35-45 39M116 82l22-27m112 35-22-43m22 183-44 39m44-179 45 31M93 164l-22-43m112 35 23-27M93 164l45 31m112 35 23-28m-112 36-23-43m23 43 45 31m44-179-44 39M93 164l-45 38M250 90l23-28M161 97l-23-42m23 183-45 38m45-179 45 32m22 42-22-42M93 164l23-28m112 35 45 31m-112 36 22-28M71 245l-23-43m23 43 45 31m45-179-45 39m112 35-45 39M161 97l22-27M71 105 48 62m23 183-45 39m45-179 45 31m112 35 22-28m-112 35-22-42m22 42 45 32M71 245l22-28m113 35-23-42m23 42 44 32M71 105l-45 38m112 35-45 39m113-105-23-42M71 105l22-28m113 175-45 39m45-179 44 31m-112 35 23-27m45 101 22-27m-22-113-45 39m45-39 22-28m400 126h-25l-19 6m40-65-7-6m-33 71h-25l-18 6m39-65-6-6m-33 71h-25l-19 6m94-5-7-7m-47-54-7-5m-33 71h-25m134-71 18-6m-4-60h-25M472 228l-19 6m153-77h-26m-33 72-6-7m-48-54-6-6m108-71-19 5M453 234h-25m134-71 18-6m36-127-7-4m-33 70-25 1m65 126h-25m-29-60-25-1m-34 73-6-7m-49-54-5-6m108-71-19 5m59 121-18 6m-55-60 19-7m35-126-6-5m47 132-7-6m-74-55-25 1m66 126h-26m-29-60-25-1m-34 73-6-7m54-131-19 5m59 121-19 6m-54-60 19-7m90-65-7-7m-48-55-6-5m46 133-6-6m-74-55h-25m65 127h-25m95-199 18-6M474 175l-26-1m15-66-19 5m59 122-19 6M598 36h-26M429 181l19-7m91-65-7-7m47 135-6-8M484 47l-6-5m46 133-6-6m-74-56-25 1m65 127h-25m95-199 18-6m22 134 19-7m-4-61-26 1M459 241l-20 7M554 42l-26-1m66 129-26-1m-74-55-6-6m47 135-7-8M439 52l-6-5m46 134-5-6m109-72-19 5M439 248h-25m95-201 19-6m22 135 18-7m37-128-7-5m-34 72-25 1m66 128h-26M509 47h-25m66 129-26-1m-75-55-5-7m46 136-6-8m-50-54-5-6m110-72-19 5m59 123-19 6M464 53l20-6m21 135 19-7m36-129-6-4m47 134-7-6m-74-56h-26m66 129h-25M464 53l-25-1m66 130-26-1m-34 74-6-7m55-134-19 5m60 124-19 6M419 58l20-6m21 136 19-7m92-66-7-7m-49-56-6-5m47 135-6-6m-75-57-26 1m67 129h-26m96-202 19-6M460 188l-26-1m15-67-20 5m61 124-20 6M586 47l-26-1M414 194l20-7m92-67-6-6m47 137-7-8M470 57l-6-4m47 135-6-6m-76-57-25 1m66 129h-25m96-203 19-6m22 137 19-7m-4-62-26 1M445 255l-20 7M541 52h-26m67 131-26-1m-75-56-6-7m47 138-6-8M424 63l-5-5m47 136-6-6m111-73-19 5M425 262h-25m96-204 19-6m22 137 19-7m37-130-7-5m-34 73h-26m67 130-26 1M496 58l-26-1m67 132-26-1m-76-56-6-7m47 138-6-8m-50-55-6-6m112-74-19 6m60 125-19 6M450 64l20-7m22 138 19-7m37-131-7-5m48 137-7-6m-75-57h-26m67 131h-26M450 64l-26-1m68 132-26-1m-35 76-6-8m56-136-20 6m61 125-20 6M404 69l20-6m22 138 20-7m93-67-7-7m-50-57-6-5m48 137-7-6m-76-57h-26m67 131h-26m98-205 19-6M446 201l-26-1m15-68-20 6m61 125-20 7M574 58l-26-1M400 207l20-7m93-67-6-7m48 139-7-8M456 69l-6-5m48 137-6-6m-77-57h-26m67 132h-25m97-206 20-7m22 139 19-7m-4-63-26 1M431 270l-21 6M528 64l-26-1m68 133-26-1m-77-56-6-7m48 139-7-8M410 74l-6-5m47 138-5-6m113-74-20 5M410 276h-26m98-207 20-6m22 139 20-7m37-132-7-5m-35 74-26 1m68 132h-26M482 69h-26m68 133-26-1m-78-56-5-7m47 140-6-8m-51-56-5-7m113-74-20 5m62 127-20 6M436 75l20-6m22 139 20-7m37-132-7-5m49 138-7-6m-77-58-26 1m68 132h-26M436 75l-26-1m68 134-27-1m-35 77-6-8m57-137-21 5m63 127-20 7M389 81l21-7m21 141 20-8m95-68-7-7m-51-58-6-5m49 139-7-6m-78-58-26 1m69 133h-27m99-209 20-6M431 215l-26-1m15-69-20 5m62 128-20 6M561 69h-26M384 221l21-7m94-69-6-7m-52-58-5-5m48 140-6-7m-78-58-26 1m68 133h-26m99-209 20-6m38 70h-27M416 284l-21 7M515 75l-27-1m-36 77-6-7m-52-58-5-5m48 140-6-6m115-76-20 6M395 291h-26m99-210 20-7m80 0-7-5m-35 76h-27m-31-64-27-1m-36 78-5-8m-11 78-5-7m115-76-20 6m-58-64 20-7m80 0-6-5m-36 76h-27m-31-64-27-1m58 65-20 6m-59-64 21-7m80 0-6-5m-36 76-27 1-21 5m42-71-5-5m-37 76-26 1m20-66-5-5m516 115 1-49m-46-20 46 20m-46-20 1-49m-1 49-34 26m-1 49 1-49m83-88-48 13m-81 54 46 21m80-6 16-2m-142-13 1-50m80-4-32-8m80-5 2-50M764 144l-35 26m-1 49 1-49m84-88-48 12m128-17 15 30m44 121 2-50m-144-13 15-3m81-5 48 21M765 94l-35-8m176 71 2-50m-95-25 1-51m92 126-33 27M813 82l13 30m45 122 2-50m85-89-50 12m-179 63 13-2m83-6 48 22m81-6 18-2m-147-14 1-50m-96-26 1-51m177 72-32-8m82-4 2-52M825 162l-35 28M730 86l13 31m46 123 1-50m86-91-50 13m132-17 16 30m-232 43 48 22m83-6 16-2m-147-14 1-51m83-5-34-8m180 72 2-51m-98-26 2-51M742 168l-37 27m267-19-33 28m-234 42v-51m87-91-49 13m133-18 15 31m45 125 3-51m-149-14 15-2m84-6 50 22m-196-87-36-8m182 73 2-52m-99-26 1-52m181 73-32-7m-53 64-35 28m-62-106 14 32m47 126 1-52m88-92-51 12m-186 65 13-1m87-6 49 22m85-6 18-1m-152-15 1-52m-99-27V56m184 74-34-7m85-5 2-53M805 188l-37 28m-61-107 12 32m48 127 1-52m89-93-51 13m136-18 17 32m-241 44 50 22m86-6 17-1m-153-15 1-53m87-5-36-8m187 75 2-53m-102-27 2-54m98 134-35 29M770 128l-51 13m138-18 16 32m47 129 2-52m-154-16 15-1m88-6 51 23m-51-23 2-54m-103-27 1-54m188 76-34-8m-54 67-36 29m-65-110 14 33m49 130 2-53m90-96-52 13m-90 60 52 23m-52-23 1-54m89-6-36-7m88-6 3-54m-91 60-53 13m53-13 2-55M135 453h52m-52 0-17 50m85 0-16-50m-26 81 42-31m-85 0 43 31m-52-116 26 35m52 0 26-35M76 517l42-14m127 14-42-14m-42 75v-44m-26-154-26 38m104 0-26-38m70 51-44-13M64 431l45-13m164 62-28 37m-169 0-28-37m27 83 1-46m169 0 1 46m-85 15-44 15m87 0-43-15m-26-198h52M48 480l16-49m193 0 16 49m-27 83-42 30m-87 0-42-30m32-195 28 12m52 0 28-12M64 431l-2-30m197 0-2 30m36 72-20-23M29 503l19-23m-2 76 29 7m201-7-30 7m-58 56 16-26m-71 26-16-26M62 401l45-33m152 33-44-33M29 503l17 53m230 0 17-53M133 619h55M43 422l19-21m216 21-19-21m-44-33-26-11m-82 11 26-11M26 475l3 28m264 0 3-28M46 556l14 24m201 0 15-24m-88 63 28-6m-110 0 27 6m56-262h-56m-90 65-17 53m270 0-18-53M60 580l46 33m110 0 45-33m-72-223 18 21m-74-21-19 21m-45 33-26 11m235 0-26-11m29 88 15-24M41 499l-15-24m238 77-3 28M58 552l2 28m128 26 28 7m-83-7-27 7M69 411l45-33m93 0 45 33m29 88-17 53m-206 0-17-53m147 107h-55m28-214 46-14m-93 0 47 14m-93 67 1-48m184 48-1-48m1 48 28 40m-240 0 27-40m196 93-46 16m-114 0-46-16m75 54-29-38m114 0-30 38m-27-167v-47m-48 82-45-15m141 15 44-15m-63 71 28 38m-87-38-27 38m57-129-48 35m48-35 48 35m-19 56 19-56m-96 0 18 56h59m346-36-16-3m16 3 12-13m-4 27-8-14m-22-18 6 15m-9 14 9-14m28-10-6-15m6 15 14 7m-48-12-16-3m27-10-11 13m46 29-16 3-9 13m-24-16-17-2m17 2 7 15m-20-47-11 14m38-24 17 3m-48 37-7-16m73 18 2-17m-44 32 17 1m-48-34-16-2m27-12-6-15m2 45-10 14m41-54-5-15m-56 21 7 16m-10 14 10-14m47 35-9 13m44-76-11 9m-50-8-17-2m28-11-11 13m-28 11 11-13m87 32 10-8m-28 53-9-12m-15-73-17-3m-35 69 16 3m-36-50 16 2m96 36 7 9m-106-15 7 15m16 3 8 15m-48-35 17 2m-13-32-11 14m72 52-17-1m-48-35-7-16m83-33 11-11m-56 19-6-15m28-11 6 15m-82 34 16 2m11-14-6-15m16 75 10-13m41 19 8 13m51-82-15-7m-119 53 10-13m48 35-9 12m70-87-5-15m20 22 4 16m-28 53 16-4m-12-87-17-5m-51-9-11 13m75 92-9 13m-55-118 17 2m63 99 7-15m-152-50 6 15m32-40 16 2m-48 38-9 12m97-73-12 12m34 7-5-15m-84 30 11-13m82 107h-18m-59-19 8 15m116-52-10-10m-130 45 16 2m25 17-17-2m113-35-12 7m-125-62-16-1m8 59 8 15m67-107 17 4m-35 137-8-15m25 15 9-13m-83-36-16-4m-3-42 11-13m49-38 5 15m-68 63 6 15m130-64 10-9m-55-30 6 15m59 46 9-8m-86 103h17m71-52 3-17m-129-51-5-14m9 129 9-12m94-13 7 10m-30-127-11 10m9 124 7 10m-140-89 13-3m-3 27-12-7m82 88 9-13m-49-34-8 11m52-135-11 12m11-12 17 2m13 168-8-12m-87-120 5 12m49-38h-16m44-10 12-12m67 99 9-8m-180 34 7-10m161 1 8 9m-14-76-15-7m-110-8 11-12m6 157-8-16m-55-87-2 17m158-51-6-16m25 39-4-16m-91 132-17-2m72-158 15 5m-95 137-16-3m90-155 6 16m40 44 13 8M482 572l8 13m-58-159 16-1m94 131 16-3m-117-2-7-15m133 3-9 14m-72-152-5-14m50 9-16-5m18 178 9-13m25-17 14-6m-65 38 17-2m-24-192 6 14m-96 140 15 5m-13-97 11-13m159 56-1-18m-83 121 9-14M402 467l-3-10m66 113-9 11m131-65-6 17m-181-49-6 8m17 24 8 15m35-131 5 13m48 172h-17m92-154-9 9m-152-1-13 3m144-25 10-8m-70-34-11 12m0 211 9-13m19-208-17-2m99 107 9 9m-201 18 12 7m23 45 7-10m90-155 9-8m47 128 11-7m-40 44 7 10m-99-176h15m109 77 9-8m-59 123-7-10M432 426l-3-11m-21 27-9 15m65 139-8-15m62-213-9 9m72 156 7 9M466 387l-12 13m-55 109-5-17m70 104 17 2m33-3-7-10m-88-54-6 9m29 36 14 5m142-72 2-18m-23-75 5 15m-128-31-14 2m137 14-15-7m-70-34-2-11m106 75-14-8M442 576l-8-15m121-166 7 14m-81 189 7 10m-97-143 8-8m141-69 15 7m41 44 3 17m-210 26 5 10m46-90-11 13m152 143-16 5M408 442l-2-9m134-45-7-14m33 189-10 13m-122-15-13-5m119 23 16-3m44-85 9-8m-28 75 7-16m17-24-7-9m-199 0-4 8m123-149 15 6m-3 217 10-12m-76-202 2 10m-6 217 4-8m146-130-11-10m-186 84 8 16m93 39 16-4M429 415l-13 3m185 117-13 7m-82-181 12 7m-4 227-10 10M391 465l-2 17m12 51 12 7m172-132-8 8M442 576l-5 9m168-154-9 8m-90-78-16 3m-2 244 16-3m106-139-1 17m-203-50 10-15m185 117 4-17M438 392l2 10m115-7 7-7m-72-24-13 2m111 202-7-10m-93 50-14 4m-79-95 6 16m162 52-7-9m-92-199 13-11m-86 99-2-10m71 149 14 8m-53-56-5 8m122-194-5 4M389 482l-5 8m22-57-11 6m214 44 8 10m-87 98 6 7m83-140-9 8m5 44-10 8m-145 86-12-5m16-222-13 3m-56 137-9-9m222 37-7-10m-1-120 5 16m-5-16-15-7m-172 0 3 10m21 167 11 14m157-168 13 9m-112-79 4-2m75 49-8-13m-70 215-3-5m-53-225-13 12m-42 150 5-9m36 52-12-7m137-190 15 7m-188 60 6-16m193 129-9 13m36-71 2-17m-29 75 15-6m-24 19-16 4m56-127-1-18m-234 50 2 18m39-113 13-3m115-15 9 11m1 197-11 10m-127-17-9-14m63-202-2 4m131 179-5 17m-65-192 15 7m-79 235 3 2m75-19-16 3M413 408l12-13m-21 162 12 7m122-194-12-8m93 96 8 9m-238-12-7 8m243 22-8 8m-93 114 12-9m64-183 7-6m-212 30-2-10m-9 61-4-9m240 39-5-10m12-78-9 8M449 603l-1-4m3-219v-7m167 164-10 8m-204 12-8-15m130-180-16-3M386 508l-5 8m126 94 17-3M401 413l12-5m170-17-6 4m33 176-7-9m-24 19 6 8m-89-231 14 1m-16 255 13-4m-121-76 10 8m29 36-1 7m203-118-2 18m-243-22-2 18m116-123-17 4m139 175 2-17M424 386l1 9m69 219h-17m-76-201-8 16m160-52 4-3m-1 226-4-5m-73-233-13 3m-80 169-5-18m246-84-5-16M464 611l13 3m145-198-15-7M401 565l3-8m62-192-15 8m147 25 9 11M449 603l15 8m62-249 4-1m97 106 7-8M524 607l4 3m107-169-8-9m-2 53 4 9m-29 91 10-14M380 453l2 10m2-27 9-7m227 91 7-9m-27 74-15 4M380 481l-5 8m223-91-15-7m-132-18-13 3m180 161 5 10m-174 56-12-7m-38-193 2 10m-26 94 6 9m229 55 9-7m-46 33 12-8m-2-198-10-10M437 596l-13-11m0-199 14-10m58-18 3-1M381 542l5-8m108 80 3 1m76-234-16-7m16 223-17 3m-132-15-12-7m223-137-1 18m-224-69 14-4m-40 50-4 17m249 41-2 17m-70-137-11-8m10 234-12 6m78-190h4M401 565l11 13m-37-71v-18m244 75 4-17M466 365l3-3m-5 249 3 1m63-251 16 5m-18 244 16-4M399 403l11-13m-21 168 12 7m204 21-5-1m2-188-4 1m-68-37-14-4m-2 257 14-4m106-179 1 10m-1 26v-8m-245 99-8-16m1-116 2 10m248 49-3 9m-254-33 5-8m59-82-1 5m-1 220 2 3m189-79-1-9m-252-22-3-10m27-76-12 6m112-52h17m109 181-2 9m-126 68 17-1m-144-99 5-8m244 57-3 8m-40-192-3 1m0 216 4 1m-196-56-10-9m128-176-14 1m149 73-8-15M497 615h-13m-72-32v-5m-2-188 1-8m74-24-16 4m-87 64 5-17m80 203 17 3m65-250-3 1m88 101-2 18m-6-69-10-9m-72 199 4 1m57-21 11-14M375 461l-3 18m253 59 3-18M469 362l-14 3m-85 150 1 18m231-136 14 10M467 612l-13-5m-65-49-2 7m218 21-12 5M439 371l16-6m147 32-11-8M439 599l15 8m62-250 4-1m-2 259-4-1m120-183-2 8m-55 159 16-7m-2-202-15-9m-190 19 1 10m39-35 13-3m-13 221 13 7m195-132v-10m-257-23 5-8m-8 26 1 9m257 24-1 8m-261-6 2-8m256 41 1-9m-7 36 3-9m-255-23-2-10m197-133 11 8m1 218-13 4m52-30v-8m-204 19 14 9m0-218-15 8m-43 159 3-8m117-176-3 1m-1 257 3 1m62-251 16 7M400 576l12 7m152 19-16 5M398 386l13-4m204 31 1-6m-79-48 12 6M400 576l-13-11m247-108-2-18m-97 173 13-5M377 434l-3 18m255 59 2-18m-245-94 12-13m57-21 3-1m-82 193 11 8m-19-60 2-18m84 120 3 1m80-249-17-3m102 191-6 17m-81 48-17 3m76-31-1 7m-2-202 2 3m-87-37 14 1M376 557l-8-16m136 76 14-2m106-186 8 10m-206-65 3-1m0 220-3-1m-40-193-5 8m125-52-18 2m146 100-3 8m-254-31 1-10m126 193-17-1m119-45 10-7m15-71v-10m-257-31v8m194-87-3-1m-1 230 3-3m59-79 3-9m-259-24 2-9m250 69-1-10m3-108-9-16m-247 92-2 9m-1 18 3 9m107-181 13-3m-15 256 14 3m-84-40h-3m0-191-2 1m217 27-11-8m-10 179 12-13M475 360l-17 4m15 249-16-5m83-250-3 1m1 252-3 1M381 407l-3 17m253 41v18m-27-78-11-13M376 557l2 1m67-189 13-5m-1 244-13-7m-70-141-2 18m250 59 4-17m-32 64-13 4m-216-56 1-18m215-130 12 8m-164-19 16-4m-16 224 15 8m65-247-3 1m118 74-3 8M507 618l-3-1m77-29-14 11m1-226 13 11M418 584l11 9m0-220-13 7m-35 27 9-9m241 67-6-10m-19 116-1-10m-49-195 12 7m-187 60-3-9m189 175-13 4m-151-27 15 8m209-92 4-9m-231-98 16-5m-38 71-4 9m248 77-8 8M390 398l10-13m225 125 1 10m-252-33-2-9m-1 64-6-10m113-171-3-1M372 506l-6 8m110 100-3-1m67-255 16 8M403 576l-11-10m146 45 16-8m50-198-2 7M378 558l14 8m148-208-14-4M378 558l-7-16m250-105 4 18M524 615l14-4m-93-242 4 3m-1 228-4 1m161-40 9-16M509 354h17m55 234v-7M381 433l-3 18m146 164-17 3m120-126-2 18m-253-4 2-19m207-97v-6m40 53-10-9m-116-71 14-3m-2 264-14 1m-72-232-5-7m-26 18 5 9m23 177 5-3m182-20-12 6m-98-210-17 4m-2 253 17 5m132-164-3 8m-11-35-9-16m-212 12-9 9m174 164-1 6m2-237 2 2M371 542l8-8m-1-83 5 9m241 22 3 10m-13 53-1-9m-215 24-6 6m86-205-12 7m-92 119 7-8m239 39 5-8m-253-4 6 10m98 98-12-7m117-26 12-14m-2-163 11 8m-136-44-17 4m81-18h-4m-62 253-16-7m-58-176 5-17m129 208 3-3m54-222 10 14m-154-22 12-10m-1 228-10-11m130-4 13-4m43-99-2-19m-244 53 1 18m42-147 16-5m-27 18-15 7m-14 72 2-19m38-73-11 13m210 118-7 18m-190 45 15 8m131-207 12 8m27 46 3-8m-56 169 13-12m-73-228 4 3m-85 208 9 13m73 38h-3m-101-75-13-10m190-152-11-14m35 199-1-9m-194 2 16 8m-22-24 6 16m-8-136 6 10m218 19 8 10m-81 138 14-4m-9-236 12 7m-166 84-9 8m-5 56 9-9m84-133-5-6m-85 111 6 10m216 54 10-7m8-46 3-8m-94-128 16 7m-82 246 4-2m123-201-4 8m32 97 1 9m-79 83-14 11m-90-230 6 8m171 63-6-17m-78-82-14 3m-106 43 7 9m96 206 14-3m-83-29-6 6m129-13 1 9M396 434l-4 18m211 91-11 15m-205-51v-18m129-132-17 3m14 255-17 4m-104-75 9-8m168-154-4 7M414 568l7-7m175-133 12 8m13 54-2 19M488 370l11-10m-15 252 12 7M396 434l13-8m183 132-13 4m-91-192-17 4m116 38 9 16m-209 79 10 11m145-149 4-8m-6 231 1 9m-70-227-11 12m24 226-16-7m143-143 3-9m-216 9-6-10m25-43-8 17m-22 63 9-9m47-90 17-4m114 19 13 7m-144-22-10 14m27 187 8 14m-51-196 16-5m169 129 1 10m-36 33 12-14m42-72-5-11m-215 57-4-18m63 73-16-8m175-74-7 8m-96-160 8 9m-80 217-7-14m128-180 9 16M401 536l14 9m22 24-16-8m92 54-1-9m-97-61 6 16m131 17 15-2m-171-96 2-18m167-73-14-5m40 53 5-9m-101-48-7-10m36-4 18 3m69 93 5 17m-76 113 12-14M416 435l-7-9m85 178-10 8m58-243 9 15m51 149 10-16m-36 34 3 11M467 396l-7-10m-54 123-9 9m143 74-16 1m-91-189 7 10m-31 39-11 9m62 129 9-8m105-178-7 11m32 38 12 8m-207 29-8-11m116 126-18-2m30-238-10 13m-2 227 12-13m-87-24 9-8m156-28-13 4m-165 0-9 8m80-165 19-1m38 199-4-12m51-112-8-17m21 51 4-9m-207-26 7-18m126-40 9-11m59 123 2 10M495 380l-10 13m-81 98 2 18m183 28-13 14m15-114-16-5m-81 172-7-15m-2-196-18 3m-37 33-14 6m41-26 10-13m2 187 18 6m31-10 6 14m-94-164 10-15m135 18-8-16m-127-2 17-5m119 142-16 1m-37-159-9-14m-95 140-13-10m63 74-6-16m87-156 17 5M463 567l-17-6m96-166-19-2M419 519l5 18m22 24-6-17m172-56-2 19m-68-112 8 16m-2 155 12-14m-120-8-16-7m-8-74-7-10m190 1-6 10m-179 18-10 9m96 86-13 12m44-24 17 1m41-29-4-12M485 393l9 13m6 171 18 2 13-14m-8-172-10 13m54 38 8-12m37 56-12-8m-4 31 14-4m-145-87-8-11m6 158 12-10m-38-119-7-9m120-18-9 13m14 114 5 14m-146-70 2-19m97-57h-19m6 171-6-16m-66-50-9 8m31 16-10 9m160-64-7-16m-62 101-6-15m71-39-11 14m-10-65 18 4m-99-58-10 13m29-13 9 16m-28 139-19-4m100-97-8-16m0 80 18 1m-169-62 13-8m112-31-19-2m45 22-18-3m-135 41 10 11m117-69 8 17m-84-21 19-1m83 105-12 14m-86 3 6 16m19 4 12-13m94-68-10 14m-35 44-18-2m53-42 6 17m-159-73-8 17m77 93 19 2m-70-116 10-14m72 116-12 14m-75-15 19 6m-32-103 18-4m-27 77-4-18m20 26 6 16m72-113-10 14m-68 83-16-8m137-37 10-14m-82-26-9-15m55 36 10-14m18 83-6-17m29-13-17-2m-73 40 6 16m31-12-6-16m-50 9-12 12m96-67 8 18m-80-58 19 2m49 71 12-15m-8-18-18-2m-35-36 8 16m27 20-8-17m-103 10-7-10m132 52-18-2m-23-53 19 3m-58 74 19 3m-45-98 9 13m-30 37-10 9m119 12-12 15m-19-3-12 15m31-12-19-3m-68 2 12-11m27-60 10-14m54 38-11 15m7 18-7-18m-61 25 6 17m29-62 10-15m-14 48 6 17m5-32 19 2m-53-39-19-1m-28 18-2 19m76-17 7 18m-42 27-19-4m50-8 11-15m-34-37 8 16 19 3m-56-6 10-14m-28 18 18-4m33 37-12 14m12-14 19 2m-72-16 16 8 6 16m35-44-11 16m7 18-7-18m-18-2-8-17m-4 31 12-14 18 2m343-7 34 31m-7 44 7-44 40-21m-74-10 19-40m-60 54 41-14m65-34 9 44m-88 80 41-15 34 25m13-90 34 24m-89-74 46 6m-113 93 7-45m-7 45 34 31m10-158 23 28m42 140 41-20 6-46m-172-46 23 26m106-48 26-22M809 563l8 35m47 6 20-31m47-66 26-19m-210 47 28-3m42 66 47 6m-88-185 43-14m-60 56 17-42m149 134 21 9M819 405l27-31m68 43 36 25m-57-62 21 37m-178 73 23-29m191-19 7 46M789 601l28-3m-81-108 11 45m99-161 47 6m-29 224 21 11m72-127 10 34m-220 13 6 34m8-168 15 18m170 143 21-40M830 355l16 19m81 219 19-31m-193 7 36 32m161-159 14-13m-71-49 15-15M730 478l6 12m149 125 42-22m-138 8 20 11m158-90 3-11M857 619l28-4M761 401l26-32m-37 191 3 9m-15-138 23-30m26-32 43-14 39-6m39 16 36 25 20 39m-95-80 39 16M730 478l8-47m189 153v9m37-164 10 34M809 612l48 7M730 478l7 36m233-3 4-48M785 586l24 26m-72-98 13 46m31-183 6-8m70 250 26-19m-133-40 35 26m164-43 21-32m-232-80 12-15m177 168 22-41m-7-144 2-9m-61 210 44-16m-62-227 4-8m91 96 14 18m-224-47 31-39m-44 137 15-14m33 86 24-18m51 7 23 25m59-201 18 46m-179-68 39-6m113 154 16 18M750 416l7 35m63-80 45-14m36 25 41 17m-77-42 36 25m-92 186 51 7m-108-75 5-49m183 25 20-31m-208 55 35 27 22 41m124-43 7-49m-80 99 28-34 45-16M820 371l8 35m51 7 22-31m-144 69 39-4m103 13 41 16m-153 51 29-33m12-88 51 7m-83 34 32-41m39 95 21 40m-9-128 20 47m-103-13 20 47m51 7 32-41m-83 34 51 7M275 849l-3 7m-1-42v8m0-8-5-4m12 130-4-2m-2-94 3 5m-1 33 2-1m-13-90 4 7m2-79 6-5m-10 202v7m0-30-3-6m13-180v7m-3 142-1 4m7-91 2-4m-2 141-7-1m-4-107 1 5m-3 90 4 5m-3-145 4-2m-5 165 2-5m-11-203 6-4m13 3 6-4m-16 82-2 6m-2-12 4 6m1 25 2-7m11-60-5 2m-2 181-7-3m7 3 6-4m-16-35h-7m6-108-1-6m7 108-5 6m7-183h-7m7 0 6 3m-6 191 2 7m-4 6 4-6m3-23-7-1m-17-177 6 4m1 163 1-7m11-145v2m6 55 3-7m-16-3-2 7m-5 49v-8m19-69-4 6m-7 108-5 5m14-20 2-1m-11 16 8 1m3 78 4 2m-16-4-2 3m1-248h-1m5 94 6-3m-4 99-3-6m-6-146-1 1m14 130 5 4m-25 12 6-5m26-182-2-7m-7 200h5m2-152-2-2m-4 48-4 6m-7 93-7-4m15 55v5m-19-48 2 4m1 58-2 4m12-186-4 3m-12 72 2 7m-9 91v7m27-141-2 1m-13 19-1 4m24-57v-3m-11-11 3-4m-3 160-2 1m3-17 1 3m-13 24-4-5-1-6m4-138h5m-6 37 1 4m0 91-4 6m18-207v-3m-18 175 2 7m-15-140 6 5m11 150v7m-13-126 5-6m27 165-2-7m-9-72-2-5m-9-9 2 5m-14 98 3-5m38-261-6-1m-25 157 4-5m-4-129 1-3m-8 192 4 3m9 49 4-6m-17-179-5 1m31-40-7 1m7-1 6 1m-20 51h-8m-9-37v7m5 193 3-4m21-177-1 8m16-10v-7m-39 164 8 1m13-36 3-3m-20-155-2 1m23-25-7-2m-3 38 4-7m17 6-4-6m6 119-7 2m-24-97-6 2m-4-62 2 6m40 61-2 6m-6 109 2-4m-22-31v-7m20 117v-5m-18-16 6-2m-23-62h-8m25 64-3 7m18-146v-1m4 14-5 6m-15 96-8-2m7-46 7 4m7-10 6-1m-36-82-5 6m35-74 1 8m-8-10-5-1m2 244 2 5m2-19 3-8m-24-129 1-4m-3 79 4 6m15-135-1 6m23 24-2 7m-24 44-6-4m27-10 8 1m-7 88 3-3m0-148v-6m-39 77 8 1m7 92 6-3m15-154 6 5m-42 125 3-7m3 68 7-3m15-34h-7m5-132-1 4m-26 139 4 4m29 18v3m-8-179 3 3m1-62 5-5 2-7m-21 204-1-2m-17 0-4 4m1-164h-5m32-7 2 6m-13-28 2 7m23 192-6 2m-26-203 7 2m1 128 4 4m16-24-4 2m-10 141-2 3m0-39-3 2m3-101h7m-3 124-5-5m9-21 3 4m-21-177-6 1m36 132-7 4m11-106v5m-23 2 3-3m3 84 5-3m-16-113v8m-14-51-6 2m20 49 6 4m-7-56 7-4m-16 181-4 4m40-134-7 1m-33 84-5 1m44-31-3-5m7-57-3 7m-19 95-3-3m-18-138 6-3m-17 148-7-3m39-102-7 3m-7 161 4-3m-16-38-3-5m54 67v-6m-12-209-1-4m10 225 3-6m-35-203 6-4m23 6-1 3m-41 212-3 1m-3-89-3-6m56 1 2-5m-29 14h-4m0-28-8-1m-6 5 6-5m-2-16-4-1m5 144h-1m28-104-2 7m0 72-4-3m2-168-8-2m27 47 3-4m-10 92-2 8m-21-187-2-5m-13 60v-3m22-42-7-3m-9 22 6 3m21 45 1 8m-30 141h4m-10-57v8m0-8-8-2m29-138 6 4m5 105-3-6m-4-28 5-6m-3-65 6 3m-4 25-7 3m-35 7h-8m28 87 5-1m12 26 1 6m-18 4-4 7m-17-88-7-1m32-100-5 1m12 191 8-1m2-34 3-2m13-113v-2m-1 169-7 2m-15-243-1 5m4 26 6-4m-38 134v7m25-147v7m21 230-2-2m-39-33 6-2m35-38h3m-49-145-4 6m9 179-4 7m0-108 7-3m38 89 4 5m-12 25 6 5m-52-224 4 6m3 104-5 4m46-39 3 4m-43 90-5 3m18 11-5-4m18 2 6 4m-3-53 8 2m18-64-5-3m-8 0-5-4m-7 167h4m24-4-7-4m-38-143-3 1m-11 30 2-7m44-119h1m6 140 3 8m-13-131-4 7m-38 11v-7m42 55h8m-17 45v-6m-50 37 2 7m29 78-8 2m45-200v-3m-50 184-2 5m35-12 4-4m10-19 1-4m-61-40 2-4m51 97 3-6m-48-218 4 6m15 183-5-5m26-142 4-1m14 163-5-2m3-84 6-5m-71-46-4-3m37 172 6 2m0-63-6 1m2-64 4-3m-41 35 3 5m28-124-2-4m-19 46 4-1m-7-72-6-3m70 19-8-1m-9 82-1 3m5-10 1-3m-36 35-1 4m-3 13-4 3m-5 38v-8m43-25-1 2m22-161 2 5m-54-1 1-1m3 179-3 1m49 23h-7m-54-42 4-3m52-25-7-1m-59-126-7 2m12 216-5-1m22-204 6 4m6 228-7 2m29-114-5 4m5-121 6 2m-6 52-2 8m10 119-4 7m-17-69-5 2m-7-82-7 2m50 81-5-3m-25-66h-2m-15 117-3 7m12-37v-7m-32-50v-3m52-80-4-5m-55 135h-8m45-3 2 6m1 20-3-7m-19 40 4 5m21 1-3-1m-15-194-8 2m4 40 6 2m12 99-2 6m22-158 3-4m-39 233-5-2m43 9-3-7m-28-47 7-1m-37-39 5-6m53 93h-7m-47-117h-1m52 87 8 1m14-201 1-7m-28 43 2-1m11 166 3 7m-9-32-4-6m1 13-5 2m-51-149 1 3m56 180v-4m-30-118v3m18 15 7-3m14-65 5 6m-35-33-3-6m41 73 3 2m-62-64 1 3m56 142-4-6m-24-162 1-2m10 170-5-4m-44 31-2-4m6 22 8 1m43-86 3-7m-62-53-8-1-4 6m18-96-6-3m31 252 3-1m-13-34 6-3m-14-38-8 3m65 15-4 7m-2-130h-7m0 129 9 1m-42-104 3 7m-21 154-6 4m6-259 3 6m51 105-4 7m19 129 1-1m-39-85 4-7m-1 33h8m21-113 4 5m-25-75-2-2m-57 81 3 7m20 111v3m-19 39-2-4m82-202v6m-39-2-3 7m-12 104 2 8m56-139 1 5m-52-1-1 6m-9 62 8 1m51 46 2-1m-17-128 3-6m-45 215 3-6m36-118-5 2m-33 54 5-5m-5 95-3-5m-1-105 1-1m48 49 2 5m-60 70 7-1m-8-78-4 5m61 82-1-5m6-259-4 6m-6 192-3 7m-44-13 2 2m47-105 1-3m-25 106 5-4m-48 69 8 3m56-126h-6m18-85 5-5m-68-30-2 5m-11 213 2-4m-1-33 4-1m69 36-3 5m-56-120-5-5m58-98 2 7m-75 165 6-4m75-131-6 2m-44 170-7 2m6-189-1 1m-24 130-2 2m64 4 3 7m-70 6-7 1m49-79-2-4m34 38 1 5m-34 47h7m-22 63 5-5m29 1 4 1m-33-2 1-7m49-180-4 6m-9 153-3-2m15-220 7-1m-22 66 5 4m-33-55-2 6m47 184-3-5m4-7 6-1m-17-156-4 4m-65 173v3m47 49v-3m-12-96-4-4m16-85-3-2m-10-60 3-7m12 199-2-2m-30-46-2 1m-1-68-4 1m1 90-8-2m-6-79 1-4m71 55 2 4m-30-107-4 2m-23 168 7 4m16-216-2-7m35 112 5-1m-13-99h8m-55 2 4-7m37 88-1-7m-13 76 5-2m2-12 2 5m-24-79 4-2m34 163 8-2m-47-141-4-2m32 127-4 7m-1-51 4-2m21 8-7-3m-31-152-4-6m56-5 1-2m-29 156 4 2m-10-32-1-2m25-74 7-1m-57-64 7 2m26 183-3 5m-20 4-5-2m4-45-3 3m29-27 3-2m-55 63 1 7m11-36h6m31-95 2 7m-28 30 4-4m-36 141-1 8m49-198h-6m-13 173-3-5m12-96-5 5m27-107-4-7m-71 186 3-6m9-101 3-4m56 3-3 5m22-67-5-2m-54 218v-2m-10-95 5-5m13 39h-3m59-65-7 2m-67 29-7 2m55-47 6 4m21-19 7-1m-104 99 4 7m31-66-4-4m7-65-4 6m67 101v-1m-16-16-5-6m-13-112 6-3m-9 235-6-5m17-66 6-5m-54-43 5-4m-3-70h-6m21-14-6 3m-23 92-6-2m53 90 2-4m9-174 1 6m6-11 6 4m15 54-5 4m-80 148-3-1m13-67 8 3m4-187-5 2m-9 98 2 5m0 79-5 5m71-110 5-4m-4 124 8 2m-48-100 1 8m24 91 2 2m-4-195-3 7m-56 161-3-6m65 63-5 1m-6-19 8 1m3-181 1 8m-13-25h-6m-25 182 6 6m-5 45 2 6m4-141 6-1m-25-121-2 2m83 65-6-3m-43-35-6-1m14 228 7-3m15-200 1 7m5 5-5-5m-38 183-6 2m-4-110-7-2m-4 88h-4m32-55-7 1m43-81-8 2m18-59h-7m-49-7-7 1m22 240 3-7m-24-66-6 4m39-140 7-5m-36 0 7 4m-37 116v7m23-21-6 5m5-66-8-1m7 132-1 5m42-129 3 5m-41-99 4-7m59 107 3-7m-49 148 3 3m16-80-7 4m-31 31-2-5m-5-138 5-5m25 136 1 3m3 19 5 5m31-175h-2m-10 191 4 3m-51-50 7 2m-39 17 6 5m86 35-4 4m-82-237-7-4m73 124-1-5m-11-53h-7m-27 116v7m52 65-4-1m-67-23-1 3m58-160-4-7m33 64-5 4m-8 64 5-4m-5-23 3-1m-28 26v8m-37-200h3m7 14 4 7m39 50 5 1m-76 121-7 3m62-60 7-4m9-107-4-4m16-14 4 6m-23-22v-3m-33 131 5 2m-33 27 3 5m29-47-8-1m-19 110v3m48-190 2 7m7 3-7-3m4 46-5 1m-64 95 2 5m48-112 1 7m21 154-2 6m2-181 3-5m-21-58h-4m-11 28 3 5m13-13 5-5m-47-8 4 2m-14 142-6 2m46 8 5-3m40-47v-7m-73 85 5-2m68-52-4-2m-28 7 6 3m5-11 2 7m-59-45h-7m-17 124 7-2m91-67-1 6m-43-86-5-4m-34 177h7m2-148 6 1m69 3 3 6m-45-64-1-7m29 43 7 2m26 121h-4m-97-62 5-4m48-44-5-5m-8-9-3-6m18 40-5-2m2-35 5-3m-8 30 1-3m46 88v-1m-21-61-2-8m-38-100-3 7m1 125 1-7m-6 89 2-7m40-59 2-5m-19-17-6-2m-32 68-5-1m50-170 3-5m-36 88 1 6m-24 76 2-7m70 20h-4m-78-60-7-2m86-37-5-4m-17 129-6-5m-47 8-6-3m6-70-2 2m63 28 2-5m23 7-8-1m-89-202 3-6m37 126 4-6m66 144-5-5m-83-2-4-7m35-107 7 3m-34-43 7 3m49 140 1-7m-30-70-4 6m-12-83-4-2m49-19-5 6m9-54-4-3m-33 169-1-7m-15-37-2-4m83-30-4-5m-72-44 1 7m73-55-5-3m-44 42-3-1m-47 93-7-2m107-63 1-1m-65 11-4 3m26 138-6-1m-16-55-1 7m-23-101 5 2m35 82 4 1m31-144 1-6m-81 147-7-4m58 72 7 3m-11 31 3-3m-17-179 7 2m-20 74-2 3m45 77-5-5m-20 8v-7m37-129-7-1m-34 105-3 1m14-131-5 5m24 99v1m-51 35-5-6m-10 36 5-6m-20-4 2 7m28-141 6-2m72 60-1-7m-5 102v-7m-57-230-2-5m-27 160 4-2m53-137 8-2m-7 104-3-4m0 41 2-3m-76-168 1 7m-4 139 3 7m18-155-2 7m3 190-7-4m35-191 1 4m-24-10 7 1m35 96h8m-55 104 6-4m76-112 1 2m-4 56 7 2m-52-9v7m55 8 2 6m-38 58-6 2m-56-6-1 3m32 22 1 6m59-209 3-5m-77-11 8-2m61 44-4 1m-79-43 3-6m-20 215-2 6m91-67 8-2m19-92 2-5m-75 3 6 4m2 74 6-4m16 53 5 6m0-81 7-3m-10-99-1 4m-25 6-6 1m-16 232-1-5m44-160-3 7m2-76v5m-62 191 3-3m94 18 6-4m-6 11v-7m-17-87-4-5m9-42-5 6m17 135 5 6m-72-32-2 6m-31-80 6-3m69-93-5 4m-26 207 4 1m26-141-6-4m-15-34-4 7m-51 168 5 6m10-105 2-7m93-1-3-6m-47 90 7-5m23-200-4 6m-84 110-3 6m55-31 3 2m42 86 3 6m-11-7-4-1m28 30-7-2m-91-83-2-7m70-34-2 7m25 58-6 5m-63-178-6-2m70 15 6-5m-83-11-6 4m67 264 6-4m-17-143v7m31 41 6-5m-108 76-4-3m82-78 4 6m-55-82 3 7m-8 140 6-4m16 2-4 1m27-218-6-3m-58 8-5-3m105 163-1-7m2-124 4 6m-123 54 7-2m30 127-7-1m23-28 2-1m43-177 2 7m-22 160 3 6m-58-19h8m28-30-6-2m58 20-6-2m14-118-2-5M174 890l5-5m26-187-3 5m22-5 2-7m48 212-7-1m-88 31 4-5m69-111v-8m-8 120-2-1m34-128 2 3m-36-114-2-7m-61 251-3 6m8-58 6-3m51-144 7 1m-50 109 4-2m-40 50 7 3m5-5-5 5m15-14-5 4m53-73-1 5m61 71-1 8m-60-46-2-5m-53 1 2-6m72-124 4 3m5 121 2-7m5-22 2 1m-96 101-8 1m94-31h-6m-10 22 1 6m-11-190-2 1m47 124 6 4m-70-154 2-5m-11 89v4m1 140-4 1m-11-144 1 2m99-31 2 8m-33-76-4 5m-11 140 2-2m-35-1h8m48-59h-1m-105 22 5-3m81 79 5-7m-3-158-1-8m-8 199 4 7m29-111 3-2m10-99-1 6M172 913l5 5m97-15 4-7m-3-31 3-3m-46 29h8m20 36 2 1m-86-82-5 5m20-153 4 6m-4-6-7-1m100 181 3-6m-100 23-3 7m68-124h3m37 89-5 5m2-27 6 2m-48 0 5-6m8-89v-3m19-35 4 7m-41 184 2-7m-8 18-5-1m-14 15 3-7m-2-116h-1m-42-121 3 1m34 65 5-2m-36 195 5 1m61-81-3 6m15-31-7 1m30 102 1-3m-90-107 8 1m-35 21 5-4m121 37-2-5m-85-8-2 3m6-32 7-3m60-19-4 2m-65 67-1 2m42-203 7-3m-64-6 5 2m71 14-3 5m-38 161v-2m30 52 1-4m-7-195-7-2m1 82 2 2m-38-34 2-4m37 93v-6m-36-21-5 2m66-115-6-2m-64-8-7 1m72 198-4-2m16-186-7-1m12 61-4-6m-22 115 5 5m16-191h-5m-64 79 1-5m73 86 5 3m-73-79 1 4m25 3-1-3m21 81 3 6m-76-14-4-2m30-172v7m32 162 5 5m-20-46 1-8m-17 39 6 1m42-107 6 4m24 24-2-5m-51-26-5-1m-10 188-6 2m42-57-3-6m-95-168 5-1m90 169-7-2m-25-87 1 2m-33-69-4 7m95-25 7-3m-92 151 1 8m82 74-3-3m-36 33 3-4m-26-7v7m-57-209-6-4m125 45 8-1m-26 57-5 3m-44-122-3-1m38 107-3 3m29 76 6-1m-6 32-3 1m-66-82-7-4m-2 19-3-3m-43-71 7 2m82-75-6 1m-12 194 6 6m-9 20-5-5m-16-96 5-6m-28-1-3-3m117-13-1-7m-40-65-3-4m-20 156h4m43-147-5-3m-48 201-3 6m71-196-3-4m-3 130h-7m-3-112 6 2m4 110 6 5m-81 24 3 1m17-219-3 2m-64 246-1-8m124-95 1-2m5 64-7-1m-67 35h-7m64-27 2 4m-34-21-2 5m-75-158 6 2m90 56v1m-72 41h4m99 34-3-7m5-95-2 8m-115 11h-4m14 111 2-3m-29 24 4-2m37 29 1-2m-28-69-3-6m104-1-3 7h-7m19-137 5-3m-126 91 5-1m61 23-7-1m22 27-6 2m-54 8-3-7m63 55 6 6m-1-235v4m23 168 5 6m-81 32-3 3m92-112 6 3m-86 120 5 6m-48-38-1-5m59 3-1-8m-7-130-2 8m-6 20 6-4m24-93 6-1m-3 119-4 3m-51 101 2-3m-3-53-5-3m55 69-5 6m52-118 7-2m-22 148v-2m-5-64 2-6m21-196 5 5m-80 21-4-4m62 34-6 5m5 146 2 5m-33-172 5-6m30-16 7-2m-49 212-1-6m5-58 5-4m-82 25 4 2m124-89 4-5m-6 29-4 5m-84-91 1-6m-20 155-1-6m90-111-2-7m-97 187-1-5m15-238-6 5m51 133-1 2m27 1 3-7m-33-39-6-5m64-10-7 1m-86 151h-4m89-88 6-4m-88-129-3 2m-7 191v-1m100-81-6 4m-18 123-2 7m32-163-4 6m-16 92 5-5m-56-20v-6m68 0v-2m-93 37 3 4m3-104-7-1m-19 14-3-5m9 71-4-5m13 78 2 2m71-94-3-2m-75 33 7 2m63-78-2-8m-71 54 5 4m28-66h-7m87-57-1-2m-64 161-2-5m35-166-2 5m-98 124-6 6m51-66-7 1m75-50-1 6m-13 2 7 3m-95 138-2 7m102 13-7 4m26-162-7 2m-19 160 1 7m-52-36 7-3m-31-23 4 7m20 68v-5m-47-217 2 3m122 37 5 6m-5-6 2-7m-64 155 8 1m4-170 2 6m8 178-3 1m26-89 3-5m-10-121-3-2m13 236-6 3m-109-15 7 3m116-9 5 6M164 717l-3 6m83 73-7 5m26 99 2-7M161 723l-2 6m87 98-2 6m-22 102 6-3m-77-147 3 2m12 68-4-4m94 81 6-4m-98-211 2-6m41 182 7 2m-12-53-5 1m45 43-5-6m-5-68 1 3m-26 44-7 2m56 71-6 3m-6-6h-3m-33-181 4 4m-6-45 8 3m6 180-6 5m-46-18-5 3m74 0 1-7m-63-49-7-2m47-128v-3m19-8-5 6m-44 252 1 5m89-156 1-5m-50 80 7 2m-56-83 6-4m-22 21-7 1m80-75 2 6m-75-52-2-1m116 185-1-4m-43 54 4-2m-59-183-5 5m19-47 1-5m-23 194 6-5m-21 41-4-6m109-132-3 3m13 147 7 3m-42-61 5 6m29-174-5-2m5 70-4 2m-56 167 3-6m3-65-1 7m-42-130 1-7m36 124 6 6m-53 51v8m47-65 2-7m-67-99-1 8m119-12 5 3m-39 113-6-2m62 80 3-4m-133-73-7 1m127-117 3-6m-75 133 5-2m7-3 5 5m-10 16-6-2m71-177v-1m-25 140-1 1m-71-168 3-2m81 176 3-3m-110-17 5-1m30 46 2 7m27-81 1-4m20 27-3 7m-29-15 1 2m46-117-3-7m-33 77 5 2m23 13 6 1m26 28-4 1m-62-66v4m-49 37 3-7m64 97 1 7m19-12h-6m-22-45 2 3m-10 71v-7m-19 5-7-1m24-136-1-5m21 113-2 7m46-194h4M162 937l2 1m96-23-3-4m-33-8 5-5m-83-164 1 2m53 125-6 3m-58-115 6 4m16-7-4 3m53 187-5 5m-20-36 4 7m-17-221v4m20 138 1 8m22 67 4-6m-3-37 7-2m16-152 1 4m-13 207 2-1m25-21 5 4m-26-20 7-4m-51-6h-5m7-14-3-4m59-23 5 6m-22-61 1-5m56-38-3-5m-57 173-8-1m26-114 2-4m-54-62v-5m-9 201 5-6m58-79-7 1m-71-123-5-6m51 210-7 4m9-24 2 7m32 40-4 1m30-177 3-4m-58 185v1m-48-106-7 1m121-9-1-7m-89 68-6-3m77-62-3-1m22 5-1 6m-23-49 7 1m-7-1h-6m-47-43-3-7m-16 92-2-6m42-138-1 5m-43 247-4-6m-17-92-2 8m21-77v6m34-69-3-1m63-27 4-2M181 849l3-4m15 70-6-2m-18-89 5 1m69-7v2m-14 114-7-2m47-4 4 1m-28-190h-3m24 11-7 2m-67 192 4-3m60-244-4-6M146 846l-3-1m133 62-1-2m-85-64 7 2m-36-42 3 6m110 1 3 3m-113 32-7-4m42 76 6 4m15-95-4-6m-51-72 5-4m-2 80-3-2m17 85-5-3m72-198-4-4m-10 213 4-7m38-62 7-4m0-117-3 7m-23 45 5-6m-111 97 4-4m109-131 4-4m-34 207 6-5m17-52h2m-87-91 4-2m60 50-4-6m35-36 7-2m-7 135-2-6m-41-90-5-5m-58 90-2 2m-19-47 4-2m32-142-1 5m30-23h-2m65 148 5 6m4-106-6-5m-77 145 6-4m-63-10-2 8m45-190-6 1m62 103v-2m-69 76 5 5m27-5-6-5m-20 17-1-7m-3-22h4m-30-143-6 6m112 74 5-6m-61 73v8m75-17-7 2m-98-63 4-3m-7 95v1m72-20 2-5m-39-170-6-4m77 203-2 2m-68-113 1-2m-27 64 6-2m44-57 6-5m-11 33v7m56 30 5-4m-1-19 8 2m-110 62 4 5m10-34 6 4m-4-23-6 4m-18-134 5 1m-6 34h-7m-16 18-1-3m45 113 8-2m42-51-3-6m-76 39 5-3m101 96 3-1m-57-94 2-2m53-29 1-4M160 926v-2m75 10 2 7m-27-177-1 7m-57 131-3 5m66-213 6 4m-40 220-2 4m-11-45-5-3m42-133-5-3m34 163-5-3m-87-4-6-5m3-89 2 1m111 42-3-4m-104-55 6 1m50 99v7m50 2-3-7m-28-8-3-1m17 24 5 5m7-1-7 1m12-13v7m-51-23 1 7m11 31 5 4m16-91-8 1m-61-106h-3m19 102 7 2m91-72-1 7m-45 185 5-6m-1-120-3 7m19-117 2 1m-73 223-2-5m93-82-3 7m-86-81-3-7m10-79-6-1m82 232-6-4m-27-189 1 1m17 173-5 5m-71-205-6-5m68 246 7 2m-36-195-2 4m44 128-2 6m-63 55 6 1m30-152v-7m-25-91 6-4m18 175 2-5m-7-164-6-3m-71 190v-5m18-171h5m60-7 7-4m17 6-1-8m-8 19 2-8m-98 27-2-7m117 68-4-6m7-94-3-4m-96 0 2-6m23 6-6-3m-52 83 2 8m104 34 1 6m-26 121 4 2m-21-216 7 2m-19 170-1 8m-31-168-6-4m-12 210 2 7m71-105-4 1m47-59 7 1m11-88v5m-17-2-7 3m6 224-3 2m-6-11v-5m37-199-4 6m-38 164-3-2m-70-28v8m20-22 7 5m26-24 6-3m8 104-7-3m-12-93 5-5m-46 117 2 7m80-91-4 5m10-9-6 4m-110-5 1 7m-1-107 2-2m7 37-4-7m107-91-4 6m-53 250 7 2m51-142 1-5m8-22-3 3m-107-62-4 1m119 112 1-8m-44 20 2-6m-17-9-5 3m-10-107-6 2m25-33-7-3m-39 125 1-6m-26 120-5-5m48-60 7-2m-65-80 5-5m45 11-5 5m97-39-2 2m-106 81v4m112-112-1-7m-4 47-1 2m-61-81-2-7m-57 164-7 4m122 6 4 2m-75-30 6-1m57 54 8-3m-36-42 3-6m-30 66-1 6m11-125 4-5m-32-46-6-5m62-22-5-4m-70 52-4-3m62 68-1-4m-50-115 4 3m52 3v7m-49 201 5-4m39 0v1m1-192 4-6m-80 164-3 7m8-142 5 2m84 126 7-3m-58-135-7 1m31 34 2 5m-69-81-4-3m25 234 3-7m61 40h6m4-236-5 2m-89 181 5 3m-9 30 4 5m90-152-5-2m13 2 4 4m-81 29 2 7m6-108v8m-34 142v-6m92 67-5-1m12-101h6m-78 117-3-5m72-235 5 5m7 246-1-6m-87-81 5 5m34-175-1 6m62 214 3 3m-74-41h-4m-3 56v-8m58-119-5 6m-51 53-7-2m-50-8v8m66-6-2 6m54-39 7-3m-36 127 6 2m-39-180-2-4m74 87v-7m-53 72 2-4m25 36h-7m-44-241v-6m-32 71-2 6m18 125h-7m65-191-4 5m-85 224-4-4m124-197 3 6m-65 32-3-3m-54 90-5-4m124-174 7 1m-10 46 3 6m-48-8v7m62 97 1-6m-126 33 4 7m-5-20-7-2m30 55 6 5m84-89 5-4m-91 60-1-8m35-142 3 7m-36-8 7-3m84 58-4 7m-78 97 3-3m-11 28 7-1m-36-207 1-3m34 16 4-6m29 1 1 7m0 62-7 2m-46 124-5-5m88-35-6-4m-70-171 6 5m85 188-5-5m-60-26-1-4m36 33 7 4m-64-8-4 5m-16-108-1-7m103-64 5 1m-4 204 4 5m-101-65h-6m39 46-4 3m22-156-4 6m-3 82 7 3m-39 57-2-7m99-24-6-5m-31-60-4 4m-37 31-2-1m-13 1v-5m-26-20-2-7m-13 59 5-5m31 79 1 7m47-174-2-7m23 171 6-5m-22 27-2-7m-7-231-3-5m-44 152-4-2m-8-68-2 5m79 69h7m-102 42-3-5m31-182 1-8m98 186-3 2m-54-169 2-5m-59 11-5 3m27 181v6m96-43 4-3M159 687l-6 1m-28 77 1 2m91 87-6-4m-60-114 3 7m88 59-5 1m-20 51 5 4m34-153-2 7m-91 79h5m8 46 1 3m-4-54 1-4m-19-69-7 3m108-11 6-3M124 936h-7m20-143-8-1m8 70-8 2m126-26-3 5m-39-127-8-2m-43 206-2 6m45-78 6 2m-5-98-7-2m41 30h-8m1 123 1-2m-41-124 5 1m-81-67 7-3m79 177-2-1m-63-125 4 5m122 57-4-2m-90 39 4 2m8 31 5-6m46-159-4-5M129 920l4 2m109-2-7-2m-56 4-3-4m80 14-6-1m-89-45 3 4m37-55-1-6m-34 116 4 2m-53-236-1 8m128 208-2-7m-25-1-3 1m-2-233-3 4m-25-4v3m17 214-7-3m50 26 6 4m4-219 1 6m-50 130-4-6m-78-62 3 5m13 15-1 6m63 29v7m41-40h7m-11-71-5-5m-28-12-6 5m-39-2 4 6m-35 124-1-7m98-132-5-3m28 97 6 5m2 105-7-2m-30-32-5-1m-14-175-6-4m-52 91-6 4m-3 83h4m93-163-2 8m13 138 3 3m-66 68-3 4m-12-211-2 5m-43 73-3-1m65 62 2 5m-1 7-6 5m-19-179-1 5m34 149-5-5m25-28-1-3m-74-85-8-3m21-48-7 1m60 221v7m31-102-4 1m-37 132-1 2m25-137 4-6m-93-16 3 7m62 89-4 4m-30-50 6-3m93-127-6-4M118 851l6 1m130-38 1-7m-10-74-7-2m-104 10 4 6m61 3-3-6m59 94 7-3m-134 36 1-7m82 74 2-5m13-225 5 5m-71 4-5-4m4 189 2-5m41-218-2 2m-28 225 3 5m-24-175 3-6m-17-41 4-6m0 69-3-5m-9 160-2-7m-6-218 3 1m131 95-5-4m-97 78-4-7m70-44-2-7m37 20 6 5m-45-97-2-6m23-22-3 4m-45-1 7 1m-42-10-5-6m79 200 2 4m-43-109h7m-36 58-6 3m74 102 1 7m-5-112h1m-60-23 1 1m22-87-1-2m10 177-5 1m-7-28 1-7m-18-42-2 7m2 32-3 3m-25-178v7m-11 116 7-1m112-78 6-2m-36 76-5 3m-75-77-1 8m111 129v5m-105 60 2-3m4-212 2-4m81 207v4m-36-101-2-2m-73 27-6-3m132-71-4 3m-23 14-6-4m-62 55 2-7m69 71-4-6m-78-97-5 5m32-119 3-2m35 40-3 1m-78-1h5m80 47-2-1m-15 78 6 3m46-36 1 1m-89-79v3m7 187-2 3m-8-242 2-6m-12 64-3 7m-1 103 3-1m6-89-3-1m58 133 4-6m-89-200 1 2m129 215 4-5m-71-203-4-1m70 243-2-2m-39-186 4-2m23 96-2 3M111 756l-8 1m44 138v2m-13-21-6-5m-13 3 6-1m92 25 3 5m-54-175-8 2m32 47-5 3m-24 98 2 1m-32 53-3 4m47-114-6 3m77 95 4-5m-85-18 3-7m11 21 1 7m53-138h3m-44-83-4-7m15 226 2-5m-77-207v4m39 83-1-7m-33 123v6m50-149-1-1m-62-44 3 3m52 100 7 2m32-144 2 7m-36 255-6 5m12-56 3 5m-53-133 6-4m77 118-4 7m-54-184-6-6m72 28 6-1m-60 115-6-4m-34 81v7m96-117-6-2m-110 89 5-2m14-17-7 2m78-154-4-1m-70 47 7-2m71 122 8-1m-35 50v8m0-105-7-1m86 2-6-3m-52-78 2-7m-19 100 5-1m-45-149-3-4m28 168 5-6m11-78-7 2m-1 98 3-1m69-9v-8m-35-52-1 8m35-41 6-3M124 924l5-4m24-68v5m62-4 2 1m-12-6-4 4m1-173 8 1m23 223-5 5m-82-117-3-2m61-86-3-1m24 238 6-5m-63-155 6 2m53-98 7 3m-58 150 6-2m-79-78-5-4m27 12h-6m-9 31 6 4m47-9-1 5m0 124 3-1m50-197-5 5m-32 97 5 3m53-133-2-7m-9 116 3 7m-5-88h-8m-83 116-4 2m63 41 6-1m-60-150-2 3m85 176 8-1m-17 19 3-7M103 727l-5 5m12 64 1-8m125 102-7-4m-32-6 6 5m13 5-5-6m-85-72-5-2m51 42-2 6m-67-138v7m110 206-2-6m-6-29h8m18 37-2-8m13-125v1m-70 119 4-4m26-26 1-7m-2-50h2m-39 55 4-4m18-183 2-6m27 181-1-6m-29 24 4 6m28-212-5-3m-50 97 6-4m-57-24 5 2m99 156-1 6m21-23-2 6m-8 37-6-4M119 722l3 8m91 203 6 3m-78-184 6-2m69 140-3 8m-2-114v6m-28 155-7-3m-38-136 4-2m51-27 2-3m-5 170-7 1m55-214h-1m-75 53-7-3m47 111 3 6m-45-181 3-1m-62 172-2-8m121 29-5 5m-32-47h5m-57-124 3-2m16-14 4 3m47 122-5 5m7-127 7-3m-96 213 1 7m-6-57-8-2m94-24 1-7M96 894l5-6m122 2 6-4m-33 59-6-1m14-183-7-5m28-47 1-1m-100 77h1m101 25v5m-63-87h-3m-35 204-3-8m33-224h4m-37 4-7-4m20-11-3-2m-19 128 2 7m56 108 3 4m15-110-8 3m16 89 1 7m-84-123 4 3m28 60-8-2m42-173 2 2m-37 146 4 2m56-61 4 7m-65-12 8 1m-20 103 3 2m99-184 5 4m-62 9 7-4m41-19-5 1M121 827l-4-5m-17-83 8 1m27 191 5 4m95-38 1-7m-96 45 3 6m25-251v-7m55 207h-7m-98-39 1 2m97-14 5-4m-70-141-5 1m39 31 6-2m-3 184 1-6m-9-52-8 2m-26-132 4 7m29 2 6-3m-65 9 2-5m25 20 7-4m53 76 2-4m-109-79-2-7m-7 24 7-3m55 104-5 6m-57-62 2 7m68 89-3 2m85 41v7m-61-112 1-8m-28-46-1-8m82 117 7-3m-133-91-7 2m72 110v3m32-104 3 3m-98-26-1 4m45 155 3-7m-13-216-6-2m-13 214 8-1m8 10 6 4m-42-9 7 4m124-258-4 5M98 857l2 7m16-106 3 7m102 70 4-5m-69 113-7 2m48-188-6 2m0-35 4-6m-87 95 7 2m34 61 8 2m74 57 5 2M122 686l-1-4m52 198-5 6m4 36-7-3m60-116 4-5m-61-108-1 6m-76 33 7 3m97 132-7 3m7 61 5-5M96 795l-5 6m10-94 4-3m89 115-3 5M97 946l-1-5m19-126 6-5m88 56 5 6M98 746v7m64 59-4 1m-18-113 6-5m61 82-4-4m-8 91 6 4m-42-100-5 5m43-44 6 1m20-8 1 6M96 795l7 3m125 126 1 3m-64-63-1 4m65-88-5 6m-116-46 5-4m21 95-2 7m37-2-1 4m-10-97-4 3m19 184-1-8m-1-100v-2m15-56h-7m-60 158 5 2m93-234 5-5m-28 228 5 3m-65-150-2-3m-12 40 1 7m26 85-3-6M98 746l2-7m121-24 2 7M107 936l-6-1m16-235-5 1M98 900l-2-6m83-187-3 4m33 155-8 2M92 769l6 3m106-11 2 5m-66-66-4 5m-19 66 2-6m27 7-4 4m30-12h7m-59 110 1-1m8 40h1m17-18 4 5m77 8 1 3m-34-199v6m48 222-7-3m-69-89 5 4m7-123-7-4m-23 151-6 5m-4-25 1 5m42-84-1 3m-74 137-1-7m91-30 3-5m-43 3 4-3m18-146-2 7m-81 77-3-5m92 31-3-4m-58-131 5-1m21 82 5-4m-56 99 2-3m55-117 3 8m-10 101-1-6m67-10-4 6m-40-142-8-1m51 184-1-2m-76-168-2-7m-1 108 8-2m-5-99 7 2m65 134 2-7m-89-139-3 2m24 75 3-6m70 48-6-5m-42-54v-4m3-59 1 8m14 39 5-5m-19-34-7 3m-15-1-6 5m-38 178-1-7m45-118-4 6m51-62-6-5m26 59-6 1m-75 60-4-6m-25 79-5 5m23 14 2-4m90-86-2 7m-68-103 3 7m60 77-7 1M98 772l5 3m41 106-7-3m24-178 6-4m-9 161h-5m64-167-2 6m-11 7-1 7m-56 126-5-7m66 97 3 1m-16-153 8-1m4-75-3 5m-84 32-7 1m103 103 1 7m-37 4 3-4m-48-123 5-5m-16 24-4-7m-11 155 1 2m-2-79-5-3m-12-81-5 5m87 146 2-5m-32-78-1 7m2 77v8m-20-147 7 1m46-7-5 5M98 857l2-5m86-149 4 3m-79 70 1 8m37 92v-7m36 27-1-1m48-64-7-1m-31 83-6-5m-90-39 2-5m-8-102-1-6m68 12 7 1m-63-49v-1m47 38 6 3m2 36h4m-34 31h-7m79 48 1-7m29-135 7-2M85 801h6m52-56 4 5m24-33 5-6m-98 7 7-1m26 59 6-5m93 142 5 1m-73-110 4 6m79-101-4 6m-130 7-6-5m43 110 6 4m62 114 2-5m-97-5-5 6m-5-212v-7m111 170h-3m-64 39 1-6m36-184-7 2m23 29 7 2m29 12-7-3M85 773l7-4m10 153-2 6m130-195-6-5m-66 171-7 1m-30-73-4 6m101 39h-4m-13-20 1-1m-74-161 6-3M92 838l3 2m19 100 4-1m-2-181 3-4m104 136 2 4m-61 20 1 5m56 15-2 2m-13-170-3 7m-37-4 6-5m40 63-5-5m-96-46-8-1m42 48-3 6m40-4 1 2m-25-84h7m-25-25v-7m-28-10-7 3m-7 196 7 3m83-131-2-8m-47 180 4-3m39-260v7m-46 59-5-4m79 91 2-7M79 906l8 4m80-62 1-8m-32-135-7-2m39-20-3-1m33 157 5-4m-8 93-1 5m-72-247 6 4m67 22 8-2m-56 126-4 6m-51-80v7m102 50-4-7m-22 74-2 1m-62-84-1-5m121-12 3 6m-99-14-1 7m34 90 3-7m-38-16-7 1m-18 82-1-7m107-230 8-2m14 102-2-6m-91-87 4 6m-20 92 3-5m37 147-4-2m-20-99-3 7m-5-59-1-7m74 35 6 2M87 787l-2-2m65-58 3-2m15 51-2-7m54 57 5 4m-58-134 6 2m6-4 3-6m8 18 5 6m-7 196h-6m12-89 7 1m-105-7-1 8m39-48 8 3m-3 80-6-5m74-44h-5m-55 29 6-3m32 6-2 7M74 911l5-5m58-224-3 5m27 13-5 2m19 206-7-1m-32-63 7-2m-9-69v-7m29-50-4-2m23 63 6-5m-35 36 5 5m-45 41 6-1m-6 66-6-2M96 813l7-3m58-82h4m-39 124 7-1m34-3-6 2m-76 14-5 5m142-184v-3M92 904l6-4m0-31 3 8m74 31h7M93 747l5-1m15 173 6 3m39-23 6 2m-74 39 6 1m77-11-2 2m-12-112-1-7m-23-90-6-1m-5 20-5 5m-39-15 6 2m60 4-2-6m77-17-6 1m-69 94 7-2M87 910l5-6m128-78-8 1m-66-133v1m-18 83 6-5m2-26 7-2m3 65-4 6m29 4 7-2m-44 57 3 3m46-66h7m18-98-5-4m-42 140-3 7m-47 42-6 4m40-80-3-7m-17 120-7 3m80 1-4-7m-44-176-5 4m26 108-7-1m-82 70 8 2m55-117 7 2m-2-40-5-4m-3-6 3 6m-41 22-1 7m14-39 5 3m63 65 6-2m-79-53v2M87 910v6m-3-223 7 1m47 66-4 6m-48-19-7 3m116 56-5 6m-77 61 7 1m30-89 6 4m-26 124 6 5m-28-39-7-2m95-145 1-3m-39 14-4-4m-54 113 7-3m105-84-6 1m-38 141-4 7m-89-41 5-4m42-149 7 2M85 864l-1-7m16-154 5 1m31 214v7m39-50-4-6m8-175-6 4m-30 47 3-7m-19-41 2 6m-2-6 1-7m-43 83-2 5m111 135v4M86 747h7m35 45-5 6m-23 54-6-4m28-162-4-1m64 191-7-1m-4-55-5 3m-47-76v7m59 64 5-6m37-113-5-3m-64 204-4 3m-37-11 1 7m49-36 4 5m-53-131 2-1m70 76-3-7m-94 85-2 4m60-4v-1m70 11-5 6M97 695l-6-1m5 27-5 1m72 158-2-5m-2-55-7 5m-13 31 6-1m53 85h7m-91-242-2 3m98 212-1-7m-41 1-4-6m31-95 7 1m-20 18-4-7m30 108-2-7m-76-6-4-4M76 757l3-7m73 75 1 8m-10-36-3-2m67-97-4-3m7 218-4 6M77 713l1 5m80 139 2 6m31-26 7 2m-103 1-1 8m64-52-2-7m-8 59-5-6m-30 12-6-5m61-9-3-3m-37-59-6-4m-27 47 1 4m112-111 7 2m-93 4-6-4m36 151-3 2m-71 66 4 3m54-191-2 6M98 869l-6-2m34 7h-6m-12 5 5-6m74 15-3 7m-26-99-3 6M82 922l5-6m-3-223-5 7m97 11-1-1m-22 98 2-6m45 73 1 1m-42-56 7 3m-75-13 5 3m7-38-2 3m-16 86 7 3m115 65 1-6m-47-198-8-3m-51 112-7 3m43-80 7 1m1-51-6 1m-44 10 7-2m91 168 5 5m-71-66v1m54-50-3 3m-18 70-6-5m40-39-4-6M95 926l5 2m56-226-3 7m18 71-3-4m-59 110 1 6m-25-91 2 3m38 132h4M72 700h7m67 38 8 1m-1-30 6 5M75 873l-6 5m133-34-4-5m-18-34 4-6m-46-39-4-7m56-47 1-4m-81 18-7-1m81 176v6m-27-63-4-5m-68-48-2-7m80 102 3 7m36-43v7m-19-1v-4m-47-30h6m-58 41 4-5m29-19 1 2m-11 7v7m27-58-6 1m-36-30h2m-15-12-5-6m65 200-3-5m-28-60 1 7m73 22 2-7m5 32h5m-58-15 6-3m6-67-3 7m42 33 7-1m-3-87-7-1M81 687l3 6m38 64-3-3m29 94 7-3M97 695l3 8m72 0 1-5m27 159 2-6m-36 43v-7m41 45-2 8m-2-45-4-3M81 687l-5-6m37 173v6m53 34-2 7m45 45-4-6m-34-8h-8m1-18-2 4M76 757l2 5m3-56-2-6m9 152 6-4m40 27-8-1m-10 68 2-3m63-25 1-6m-26-206-3-6m0 13-7 1M74 911l1 1m80-67 2-7m-75 84-2 6m22-91 5 5m94-22h-1m-18 56v7m-21 56-1 6m-66-26-7-3m32-169-5-3m5 53 4 1m-13-78 6-4m-3 152v5m96 73h8M104 803l2-4m46 68 8-4m8-177-3-4m-18 221-1 7m41-22-5-5m27 23-6-3m-19-75-2-3m-17 12-8 1m-11-144 7 2m-79 95-1 5m42 106-4-3m-21 3 2 2m55-138-2-5m-86 96 6-2m116-63 3 7M69 883v-5m8-165 4-7m1 83 3-4m81 38 1 6m33 90h6m-69-237v4m57 231-7 2m-85-89v7m11-147 5-5m24 230 4-5m-12-119 6 4m-28 125 1-1m-23 21v-2m30-30 6 1m45-40 1-4m-58-167-1-8m37 34 3 1m37 108 1 4M91 810l-4-6m17-18h8m18-63-1-1m31 203 3 7m16-152h-8M78 935l-7 4m88-225 4 2m-2 12 2 4m-20 4 3 2m15 201 2-7m-61-102-6-5M78 935l2-7m14-9 1 7m105-7-6-2M79 731l1 1m56 207-7-3M93 747l3 1m62 36-2 5M86 890l-4-5m34-169 3-6m-19-19-3 4m70 134-2 8m-20 18 2 6m-36-124 3 7m-45-41 3-3m75 203-3-6m59-202 5-5m-79 63h5m12-59-5-1m62 2-6 2m-80 93-5-4m84-54-5 1M58 942l6-5m108-234 3 7m-1 223-3-1m10-18 6 5M78 775l5 3m51 97 5-1m-26-6v-8m-9-74-3-8m93 109 3-5m-40-145-3 2M75 873l5-1m120-15-7 1m10 37v8m-75-206h-2m18 193v7m8-30-5-6m-27-88 2 1m-11-37-4-5m53 131 5-2m-3 57-2 7m-74-35 5 4m64-92-4-3m-93 66 1-8m38-151 3-3m13 137-6 2M59 728h8m130-30-6 4M77 713l-5 2m-8 222 7 2m100-222 4-7m-44 109 5-3m-21-113-1-5M71 939l1 8m107-167 3 6m-38 104 2-5m39 42 2-8m-72-17 5 6m69-43 4-7m8 18-4 6M58 942l-2 5m133-14-4-6M71 774l7 1m18-54-1 2m68 157 2-3m-73-10v-1m17-141 1-5m72 66-1 6m-99-3-8 2m78 82v-6m53-185 3 8m-101-3 6 3m18 129-3 7m1-73-7 4M95 926l-2 6m75-91-3-4m-39 37-2-2m42-88 5-4m-27 18-4-3m-23-5 2 7m1 151-4-6m2-107-5 5m-17-15-2-4m89 29 6 2m-13 32 6-1m8-50-6-5m-9-118 7 1m-91 99v4m-20-40-7-1m59 57 5-4m-21 61 2-1M99 773l2 5m-27-33v-1m-15-32 7-2m127 148-4-6m-46-142h3M75 887l7-2m55-199 4 6m30 25-8-1m20 134-6 1m-54-21-5 5m-38-68-2-5m107-58 6-2m-4 199h-3m-16-215 7-2M69 883l6 4m19 32 4-3m-8-14 1-8m43-103-1-4m-35-31-4 6m47 176-5 1m53-6v6M81 706h3m31-3 4 7m-12-23-7 4m83 253-3 5m-96-71-2 7M59 777l5-4m55 24-6 5m13 133 3 1m-65-40-5-5m34-123 1-6m12 37 7 3m40-106 4-2m14 23 3 7m-8 170h2M81 687l3-1m20 107v-7m-16 68v-2m84 13-7-4m3-175-3 6m-96 11-3 7m7 17-6 1m18 73 1 3m86-101-4-4m-11 38 6-5M59 777l-6 3m11 116 5 2m13 14h-7m29-119 2 6M62 930l2 7m43-205 2-7m41-1-7 4m-77-18 6 5m67 159 7 3m20-93h-8m-40 130 2-6m-1-148 3-3m-63-29-3 3m34 207 3-6m50-196v-8m3 149v8m32 28 3 1m-128-3 5 6m53 23 5 2M80 767l-2 8m74 98-6 4m-33-9 3 3m-53 13 6-1m29-127-2-8m11-16-7 3m2 95 3-2m-21 50-4-6m84 42-2 4m-93-6h6m50-200-6-2m-5 34-2 4m60 82-5-1m-6 110 3 2M74 791l-5-2m10-58-6-4m39 193 2 7m-34 1-1-3M64 795l-3 4m84-31 2-2m-3 32 7 1m-69-10 4 4m-33-81h6m59 202-6 6m-22-18-5 3m89-181h7m-12 5-6 3M58 865l3 3m107-27 2 8m7 2-7-2m15-119 6 3m-6 194-5 2m5-225-3 7m-62 237h7m52-121 5 1m5 37-4 1M49 932l6-3m82-204-7-2m-15 179-2-2m-13-157-4 5m41-62-5-2m42 40-5 5m-17 52 6 3M49 932l-3 6m74-152-3 4m-18-17-6-5m19 152-6-3m83 22-6 5m-9-11 6-4M91 814l3 7m74-122-3-7m0 162v7m-8-167 8-2m-28 33 6 3m34 136-5 1m-20-146-2 5M63 884l-4 7m71-168-5-4m16-21v-6m-80 56-6-2m40 145-4 3m0-191 6 3m-33-20-7-1m18 202v6m77-112h-7m-95-93 7-3m-4 95-1 7m48-96h-4m43 91 6-1M87 942l3-4m53-202-1 5m-89 39-6-5m118 79 5-5m4 84-2 6m-65-252v-5m35 216 2-1m-59 8-3 7m94-28-4-5M53 911l-7 1m101-50v-1m-67 11v-6m49-113 3-2M58 917h6m60-45-8-1M68 749l-7-1m18-17 4 4M62 930l-7-1m130-199-4-6M77 780l1-5m17-45v-7m5 12v8m0-8-5-5m81 154-1 7m-16-174 4-1m2 161 7 2m-74 37 8 1M69 703l1-4m2 16 1 5m18 158h-7m-34 67 6 2m44-236-3-5m23 67 1-6m-1 6-3 6m-8 153 5-5m36-39-4-3m-7-11-3-3m-67 27 6-5m17-27-6-5m66 12 6 1m-7-75 5-2m-65-94-7 3m99 11-1-6m-43 71-6 5m-80-75-5 5m73 212-7-2m52-143 2 5m-37 30-1-1m-44-25-1 8m26 38 2 1m-51 90 5-5m90-188-1 4m-47 191 2 8m26-235 6 5m-40 182 4-5m8-184-4 1m-31 63 7 1m-39-38 8 1m27 187-1-6M48 730l-5 5m82-24v8m33 155 7 3M73 727v-7m20 48h-6m96-51-2 7m-55 211-5-6M64 795l5-6M59 891l-5 4m14-146 6-4m104-59-3-2M67 905l2-7m17-37 2-7m80 40 7-3m-56-131 2 7M69 912l-5 5m61-223 1 3m52 159-1-5M64 686l4-6m-4 93-1-4m31 103-2-6m87-39-7 3m13-126-4-5m-82 74 6-1m-10-55v6m75 114-2 4m-58-118-1 2M67 905l2 7m33-154-4-2m14 49 1-3M95 931l-2 1m7-110-6-1m9 71-8-1m77 48-8 2m-37-153 6-1M50 945l-4-7m34-72 6-5m51-156 4-7m44 168-8-2m-54-34v-2m-3-42-3-7M98 916l-4-3M50 688l-1 8m1 178-4 2m79-164 6-4m10 89 3 1m-18 137 2 6m-45-23-4 7m50-53h-5m-57 53-3-8m51-162 4 5m59 153-7 1M50 688l-4-6m41-2-3 6m87 228h-7M40 741l3-6m47 76 1 3m87 129 5 1M44 701l5-5m-1 27v-6m26 28 4-4m-19 21h-7m95-48-4-4m-38 83h-1m23 155 1-7M84 693v-7m27 254-2 5m50-228-7 2M43 888l3 7m61-8 4-4m-6-55-5-6m15-67-3-7m-6 151-3-7m-57 27v-7m72 2 4 2m50-86-2 7m-50-51 7 2m-17 43-5-3m32-123-6 3m37 186-6-1M55 929l-2-6m-1-136v5m36 62 4-4m-1 28 3-6m-24-89-1 6m-4-96-1-6m-2 193 1 4m-5-10 3-6m103 46-5-5M95 730l-6 3m68-39-3 3m-74 10 4-1M61 868l6-3m39 34 7 1M91 696v7m22 173 3-5m-67-60-4-6m133 51-1 8m-8-162-1-3M39 937l7 1m99-170-7 1m-53 32v5m50-62 7-3m-94-18v7m52 13 6 2m-48-10-2-4m44-20-5 6m11 28 6 3m-65 27-1-4m0 124h8m-8-132 6-1m95-48 5 5m-20 32 3-7m29 51-8 2m-11-29 7 1M93 885l2 6m14 41-6-1m-30-4 6-2m4-190-5 6m86 54 4-6m1-60 2 2M83 902l2 3m93 37-6-3M83 735l6-2m-49 8-4 6m55 131 2 7m64 2-7 1m-50-177 7-1M39 937l-5 5m105-160-2-6m-72-83 5 6m-3 226 6 2m18-231 5-5m-43 21 2-5m22 73-7 3m17 6-1 4m66-12 1-4m-4-33-7-3m34 135-4 3M64 795h-5m78-70-1-2m-81 19v4m62 33-7-2M79 895l-4-2m57-209-2 5m-71 73 4 7m96 172h5m1-87-3-3m-52-20 1 8m18 33 7-1M33 949l1-7m12-23 7 4m27-57h-6m-36 20 5 2m68-184-4 6m14 219 2-5m-16-8-1 1M45 805l-3-4m99-103h5m-4 200-5 4m-79-28h-8m99-130 7-3m-79 39 7 2m7-86-7-3m34 206-5 1M42 706l2-5m0 207 2 4m-7 25-3-8m69-157 5 5m47 110 5 6M39 760l7 3m112 111 1-6m-36-146 2-3m-76-23 6 4m92 162h7m-28-94-5-1M42 900l4-5M30 748l6-1m47 171h6M68 749l-1 3m80 110-7 3M96 691l2-5m42 179-4 6m-78 3 4 6m-33-3 6 1m115 10-4 5M46 919l-6 4m47 19-2-5m20-165v-7m27-14 1 6m9 141 4-5M33 949h-8m113-180-1 7m-26 107 2-7M46 682l-6 1m93 81 5 5M95 931h8m-41-27 5 1m91-31v6m-28-62-2-7M40 923l-4 6m54-118-5-5M70 699l5 3m-48 17 7-3m68 42 3 7m51-24 6 1m-31-4 4 6M74 866l-7-1m58-171 5-5m-24 210-3 5m-50 39-3 2m12-28h2M46 763v8m64-48 1-7m42 61-1-8m-113-9-6 1m56 157 5-5M75 718l-2 2M58 898l-4-3m57-191 1-6m-1 18-4-6m46 89 3-2m-97-2-7-3M28 685v6m32 65-1 6m103-49-3 4m-2 170 1-7m-48-49 6-3m13-4 1-6m-44-48 1-2m54 29-8 2m-11 117 1 8m4-136 1 5m18-95 8-1M94 913l2-6m-1-190h-5m43 222-5 2m-27-124-1 5m2-64 1-6m-48-10 3-7m96 127 5 6M34 716l5-3m53-32-5-1M49 811l5 1m33-23-3-7m28 23 2 6m-20 61 4-1m-15 31-4-7M27 719l-1 7m29-19v-7m29-7-5 2m44 133h-7m-4-23-3-6m55-4 2 5M38 886l-3-8m91-110 7-4m0-7v7m-53-57-5-5m50-8-5 3m-55-4-5 2m63 133 6-4m-23-79-3 7M33 857l-3 7m81-25-2 3m1-119 3 6m18-21v4M44 908l-2-8m48 32 5-1M28 691l1 7m76 95 4 6m-29-92 2 7m80 191-3 4M47 795l5-3m11-23 1 3m6 11-4-3m93 161-5-5m-31-199 8 1m-14 17h-2m26 183-8 1m20-175-1 5m17-67-6 4m-1 187-1 4m-64-48-5 1M51 723h-3m13 90 7-3m63 90 6 2m-90-30 3 2M40 741l-2-3m91 134-4 3m-68 46-4 2m53-178 4-4m-7 163-7 3m16-19-1-5M58 735l4-6m79 68h5m-28 102 6 5m9-105-5-6m-50-52h-2m-21-41 5-5m34 118-4-2m-1-78 2 2m-11 71h5m35-77 3 8m-84-24 3-7m80 210 1-5M67 752l-7 4m97 100-3 6M47 795l-5 6m120-59 4 7m-61 44-1-5m28 18-4 5M92 681l6 5M74 931l-1-4m47-198 3-7m-10 154 4-2m-81 24 6 2m99 38h6m2-194-1 5m10-49-4-3m-63-1 2 1M62 904l-4-6m75-99-1 7m-71 7-7-1m21-110 4-7m14 190 2-2m62-27 5-5M41 938l-2-1m120 4v6m-38-135 7-1m-89 62-4 5m55 54-5 5m23-156 2-4m-24 0-2 5m19 149 2-3m15-231-8 1m6 201v-7M46 763l3-3m83 17 5-1m-14-39-5 5m2-13h-7M62 880l2 2m18-168 8 3m-18 88-4 5m40 99-5-5m-70-47 2-4m26 90 6 3m40-30 1-7m-79 37 4 3m42-231 7-4m80-1 1-7m-45 11-7-1m20 184-7 4m-39 33-7 1m58-215-5-4m-83 54-2-2m-9 148 3 4M30 748l1 6m73-67-6-1m56 250-7 2M38 886l-1 4m119 39-2 7m-40-125 7 1m15-89 3 6M37 804l5-3m41 101 1 3m-47-93-2 4m88-94 8-3m-70 80-2-4m-4-53-2 4m55 70 6-5m-35 84-1-4m40-174 5 5M67 946l7-1m50-41-1 7M55 707l1 3m31 79 3 2m35-18 1-5M61 943h-8M33 761l-2-7m103-19-3 3m9 127-2-2m-6-176-2 2M94 813l7 4m45-20 7 2m-47-104 6 3M76 868l-2-2m34-50-7 1m4-52 3-1m-48-8-6-2m-14-67v-4m118 17 5 6m-1 199-1-8M57 921l5-4m45-1-3 5m-42-17 3 6m53-168-8-1m13 185v-2m21-224 2-2m-104 8 1-5m23 79-2-8m40 76 5-6m-23-65v-7m-14-18h-5m13 54-8-1M44 908l-3 4m92-155 3-2m-61-53-5 4m34 142-7 1m49 44 2-1m-36-4 6 4m-71-20-8 1m23-144-4-6m73-4v-7M89 918l-2 1M75 718l-6-5m5 218 4 7M62 729l7 1m48 144 8 1m-63 42 3-7m-28-19-1 7m62-27 1-7m-70 2 1-2m6 34-5 5m43 42 4-7m26-150 4-7M92 907h4M51 723h7m-27 14 7 1m76 89 2 1m-12-141 2 8m-7 182-1-6m20 21 7-3m-22-137-4-1m32 149v-6m-13-152 3 6M53 943l-5-2m105-177-6-2M58 898v-4m50-40-4-6M75 718l-1 7m55 96v3m-75-70-5 6m-9-44-1-3m86 60 7 4m1 162-2-3M54 754l-1-8m81-11 5-6M37 812v-8m72-4v-1m-47-83-4 7m68 68 2 2m-11-38 4-7m27 1-4 6m-75 44 3 6m41-76-4 1m-3 131-7 3M79 752h-7m33 176-1-7M54 812l-2-3m29-116-2 2m14 23-3-1m0 215-1-5M62 716l7-3m58 169-2-7M83 766l3 4m20 91 2-7M69 713l1-7m-23 87v2m16-100h-3m60 2h2M99 877l-4 6M76 741l-6-3m21-3-2 7M37 919l4-7m95-105-4-1m-70-90-6-6m-17-15 1-8m69 155 4-2m-34-88 7 2m-47-59 4 6m27 37-1-8m35 58-7 1m9-94-6 4m-26 26-5 5m56 159 6 5M64 783l2-3m51-25-3 5m-6 149 4-3M93 697l7 2m7-18-3 6M41 938l7 3m13-142h8m78-85 2 7m-22 161-2 7m-61-7v7m45 56 3-6m35-177-3-7m-61 55-3-4m14 47 3-4m47-94h-8M92 907l-8-2m47-197v4m-24 26 3 3M47 872l2-4m63 20-5-1M91 735l3-5m14 86 2 4m11-8 3 4m-85 57-3-4m48 36-6 5m-41 9-7 1m34-152v4m75-43 6-2m-97 46 2 7m-4-59 5 2m39 89 4 1M57 921l-3 3m39-64 6 4m48-150-1-7m-64 34h-6M61 943l1-3M51 767l-2-7m22 147-6 3m58 4v-3m23-114-3-1m-35-15-5-4m-65-39 3 3m30 152 7-2m12-100 7-2m-46-22-3 6m60 8h7m-23-32-3-7m24 133 4-1m-80-70-3-4m58-51-6 5m22 10 6-4m-21-63-5-2M70 930l4 1m-10-49 3-6m25-127 7 2m-8 136 4-4m-12 3-5 5m27 37 2 5m17 1-1-8m8-62 7-1m-3-82-3-4m-7-4-5 2m10-53 1-3m-70 80-5 4m83-115-7-1m-46 90-1 2M58 894l6-5m-29 19-4-5m56 16 2 8m55-227 2 7M75 949l-1-4m44-228-2-1M41 938l-4-3m37-60 2-7M49 742l4 4m46 131 7 2m-35 14-7-4m14 21-7-3m-36 1 6 4m41-171 7 1m35 192 7 2m-94-83h-2m2 37v-2m97-153-5-1m-29 183 4 4M40 815l-3-3m39 56 4-5m65-136 4-6M49 701h-6m47 90-5 3m23 60 6-1m7-105 5-1m-16 73 4 7m26-132 4 5m-40 69 4-5M87 919l-6-2m-52-51 7 3m31-168 3 5m-26-21-4 2m87-2 5 2M93 914l-6 5m5-12 1 7m-15-4 3 7m-34-3-6-2m53-59-1 7m16-130-2 8m-51-28-3-3m-13 9 6 5m47-3 4 6m15 215-5-6m16-7-2-5m8-100-5-5m-27-92-3 6m-22 64-3 5m-13 4-4 6m29-116 7 2m-42 91 4-6m81 114 5-1m-4-140 4 2m-31-31 4 6m-37 22h-2m36 127 1 8m12 51-7 1M86 760v-6m-3 132 8 1m-8-77 7 2m-23 64 7-1m39-35 5 6m6 88-5 4M65 740l5-2m45 43 5-6m-74 11 1 7m92-105 1 7m-26 132v6m-8 46 7-4m6-82 7-2m-22-22-1 8m-6 4v8m-10 75 6-4m12-136h-8m-14 42 3-6m42-59-6-4m-39 69-6 3m-14-74 4 6m4 192-1 7M57 781l-7-1m59 20h7M71 907l-1-7m66-93 3 7m-26 26 1-7m17 48-4 1M49 742l-8-1m90-33-3-7m-65-6 1-7m39 89-6 4m-48 87-6-4m60-63 6-1m20 21 6-1m-5-33-4 4M54 896l4-2m45-145-4 2M36 869l7-5m58-162-1-3m14 154 4-7m-70 95 2 2m14-160-7-2m43 136-7-3M52 809l-5 4m36 73-4-6m42-190 1 7m1 217-2 7M70 787l-6-4m-13-16h6m61-4-4-3M87 864l-7-1m-1 17-5-5m18 73 3-5m2-154 2 5m-59-78-4-3m27 220-1 7m31-222-1-5m-40 84-5-4m29-101 5 1m-32 8 4 6m1 217-7-3m23 9-7 3m69-180-6-6m-1 99h-7m-54-78 6-3m61 99-2 4m1-81 5-6M90 930l-1-3m30-134-3 7m-64-3 4 6m8-35-7-1m58 14v6m-8-106h-2m-2 210 4-4m-2-163 4-6M47 921v-7m80-229-6 5M72 794l-2-7m13 23-5-1M31 701v-7m24 176-6-2m-16 13 4 7m89-160 4-6m-86-37 7 2m75 41 3 6m6 86 4-6m-77 59 5 3m49-160-7 2M37 875l-1-6m76 37 1 2m-23-58 4 3m-54-38 7-2m48 78-4-4m-6-108-7-2m-1-8-7-4M54 924l4 4m47-186 2-4m-28 58 6-2m43-53-2 6m-62-59-6-5m21 113-7-2m47-1-4-6m-33-46-2-2m-4 180 5-2m29-97-2-1M49 701l2-6m24 254 6-2m-4-178 1 8m50-36 1-7m-11 36 2 5m-79-34-5 2m26 197-4 5m65-133 1 4m-34-4 3-2M71 686l-7 2m-15 54 4-4m12 2-5-5m-9-48 7-4m-10 41-2-3m67 154h4m-14-74-4-7M70 930l4-3m17-147-6-1m3-84 3-1m28 244 2 6m-78-80-2-6m82 56-2-4m-14 21v2m-70-80 4 5m22 75-5-5M34 706l-3-5m6 234 1-5m38-69 4 2m11-83 6 1M34 909l1-1m69-139-5-2M47 914l3-5m-17-28 4-6m14-188v8M33 847l4 6m64-45 2-7m-57-15-3-1m-3 30-4 4m80-19 2 6m-18 111 5 1M76 692l-5-6m-6 54v6m47 108 2-1m2-137 4-2m-76-29-3-4m49 256 5 6M70 752l-5-6m52 176 4-1m-16-179-2 7M41 891l-4-3m58 3h8m-49 5 1 7m34-35-2-4M53 738l7-3m9-33-2-1m-9 244-8-2m68-173v-7M55 870l7 3m12-91-4 5m-36-81 2 7m35 46-1-7M47 921l-4 4m28-166-1 6m-9-38-1 8m61-45-6-1M90 850l-7-3m7 90v-7m-22-30h2m4-118 4-5m7-18 1 1m-33-53 1 2m67 235 6 4m-21-242-5-4m13 131-2-1m-38 95 2-8m-22-23-5-4m80-24-7 1m-13-151-3-4m-51 66 2 1m44 27-8 2m-38 93-5 6m49 37-4-3m-12-96-6 1m4 99 2-7m18-238-7-1m27 209-8-2M92 713l-2-6m28 99 5 6m-19-57-1-6m-24 47v7m0 80v-3m-5-155 7 1m-5-34-1 5m12-15 3 5m0 250-7 3M49 815l-2-2m27-88-6 1m33 82 5 4m-27-9-1 6m39 66 5-6m-67 1v-7m-8-131 6 6m2 132-5 6M36 713v5m21 49h-2m-9 179 4-3m-12-13 5-5m65-106-2-7m-53-16-1 1m53-116 7 1m-5 249 3-7M61 727l-5-5M43 875h-6m68 43 5 6M47 732l1-8m24 130 4 7m36-73 3-1m-16 5v2m-51-70 8-2m16 132 5-6m14-154 3 7m23 221-7 2m-3-31-4-2M61 727l7-1m31 41-1-7m-6 135 3-4m-46 1-8-1m65-185v8m2 197 5-3m-22 17-1 5m-35-67 5-5m-5 45 7 2m9-219-1-3m36 23 7-3m-22-9-1-7m-10 52 2-5m12-33-4 6m22-25 3 7M74 915l2 4M53 696l-2-1m7 233-1-1m8-53-3-1m46 38-3 7m-61-61-3 1m70-34-3-5M75 697l-6 5m35 53-6 5m-33 94-5 4m33-6-3-2m1-70v-4M61 943l-3 2m48-95 6 4M53 738l1 4m-11 43 4-6m49 90-7-1m-13-7v6M37 740l-1 3m38 184 3 3m28-188-1-1m8-46 3-6M90 809l3 1m-32-63 4-1m0 108h7m-1-95 7-2m21 10-1 5M43 875l7 1m31-150 1 8m-39-13 5 3m-7-43-6 3m8 101-2 7m-4 54-4 1m32-88h6m-9 146 6-5m-20 10 2-1m39-41-6 2m19 63 5-2M55 780l-8-1m59 71v-7m6-148 1 8M78 937l5 3m-49-31 3-5m47-196 6-1m21 117 1 8M56 722l1-6m28 43-7-2m3-31 4-5m-31-12 3 7M36 892l5-1m9-15 4 5m-7-149-4 4m36 147-1 7m-4-107v-1m24-22-6-1M52 888l-3 4m22 2-3 6m7-203 6 4m-38 20-7-3m49 41h7M44 923l-1 2m36-122 5 1m-30-95-2-5m-5 75-3-6m11 90-5-1m33 8-7-3m24-14 6-3M69 702l-2 3m25 190h-8m-22 10-1 6m38 35h-1M48 766l7 1m36 9 7-4M71 894l7-4m6 5-6-5M61 747l-7-5m24 195-1-7m7-222-3-7m10 224 7 1m-19-43 4-6M68 726l1 1m-14 53 3 2m33 143-5-4M53 796h-7m9-29 6-3m28-79 1 2m3 165 7 1M53 696l-1 8m-6 92-5-4m56 107-5-4m-18 20-7 1m7-1 5-4M37 740l6-4m4 81 2-2m12 128 7 3m-19 2-3-2m2-180-4 7m40-65-3 6m-28 82 6-1m-15 62 6 5m52 71-4-7M86 736l-4-2m1 143v-7m7-61-6-5m-32 84 2-7m31-160-4-7M70 870l6-3m-35 7 2 1m22-116-4 5m-9 158 5 5m8-73-3-3m35-54 2-5m-29 78-5 4m-3 6 3-6m-21-17-1-7m42-129 6 2m-35-32-3 5m1 185 8-1M37 775l7-2m-7 73 6 4m18 61 6 5m3-233v6m6 64 2 4M43 906l-6-2m37 37 4-4m-18-6-3-4m23-2-3 5m-34-24 5 4m13 33-3-4m-6-17-8 1m44-71h5m-45 58 6 4m-5-173 5 1m33 35 4-1m-5 145v-7M62 716h-5m4 195-7 3m32 0-7-3m6-215-4 5m-20 46 1 4m12 190-6 5M48 766l-3-6m-2-39 2-2m4 22-6-5m16 59 3-7M52 922l2-8m4-132 4 6m18 137 6-4M69 712l-2-7m4 189-4-2m15 6 2-3M74 783l-5 5m23-58-1-7m-12 56-5 4m3 122 2 6m-24-64 7 4m30-121-6 6m-24 52h7m-21-82 4-2m29 10-6 1m-12-22-7-2m2 248 2-8m24-127 1-4m-34 67-1-5m6-171-5-6m17 237-1-6m-15-28-1 3m12-191 4 5m-5 11 7-4M44 923h-5m30-196-5 5m-18 68v-4m43-111-6 4m-20 4 7-4M43 850l6-2m37-106v-6M62 880l2 5m19-196 2 7M59 801v-6m10-83 6 3m-14 49 2 2m24 11-8 2m-30-25-4 6m29-37-5 4M51 942l-2 6m0-100 6-1m-13-29 5-1m2-76-3 6m24 121v2m-12-88-2-4m21 127 5-7m-31 44 7-3m11-185 7-1m-13-60v7m7-11 6-1M41 874l6-1m34-126-5 6m-7 1-7-3M43 906l3-4m-1-183-2-8m22 217-5 3M46 747l3 7m31 171-5-4m-8-29-3-7m0-31-2-3M43 711l5-5m26 17 1-8m1-27 7 1m-34 52 3-6m29 12 5-5M54 913v1m8-163-6 3m-5 113-4 6m21 49-3 6m-9-174h-7m20 34 2 3m6 114h-6m-3 17 7-1m-9-22 1-7m-8-157 5-3m-19-13 4 3m-3 78 6 4m-5-116 4-3m8 116-7 3m10-88-1 1M51 891l1 7m5-33-6 2m18-113-1 7M52 898l-6 4m5-11-5-5m17-186-4 2m-7 2-4 2m20 55-5 5m-4-31h-7m9 38 2-7m-7 12 5-5m-15 27-5-1m18 2 6 1m1 97 5 6M56 778h-6m-2 71 1-1m2 94-4-1m23-73-7 2m-4 31-7-3m11-15 1 2m-17-12 1 6m0-150 4 6m7 166 7-2m5-46-7 1m8-55-1-8m-29 27 2-2m20 38-6 4M48 729l1-7m8 143 6 5M44 694l3-6m18 114 7-3m-15 66 1-7m-12 44h-5m1-125 8 1m-4 108 2-7m6 34 5-4m-7-205 7-2m-10 20 5-4m2 36h1m2 147v8m-18 37 6-5m14-224-7 1m-7-19-3-5m3 5 5 5m1 150 5 4M43 730l5-1m5 125-5-5m-5 86 4 6m-3-125 6 1m-7 118 5-7m806-143-4-15m-13-6 13 6m-15-22 11-9 1-16m-10 41-2-16m11 46 8-9m-27-11 10-10m-14-22 12 6m2-30 10 5m-16 66 15 5m-15-5-4-15m26 33-7-13m-32-26 13 6m26 33 15 4m-56-59 11-10 1-15 13-9m-23 50-2-16m11 46 8-9m45 31-8-9m-31-93 3-13m-36 73 10-10m31 47 8-8m-53-61 12 6m28-47 14-7m-40 24 10 5m-16 66 15 5m-15-5-4-15m26 33-7-13m-32-26 13 6m50-80 7-10m-31 123 15 4m-56-59 11-10 1-15m30-30 9 4m29 121 7-6m-75-89 13-9m-23 50-2-16m11 46 8-9m45 31-8-9m-31-93 3-13m-36 73 10-10m31 47 8-8m-53-61 12 6m28-47 14-8m22 123 16 2m-79-100 11 5m-16 66 15 5m-15-5-4-15m25 33-6-13m53-116 8 2m-94 88 14 6m50-81 6-9m-31 123 16 4m57 12-10-5m-104-66 12-10 1-15m30-30 9 4m29 121 7-6m-75-89 12-9m-23 50-2-16m11 47 9-10m45 32-8-10m-32-93 4-13m43-21 16-6m-96 100 10-10m112 55 16-1m-96-7 7-8m-53-61 12 6m29-47 14-8m22 124 16 1m-79-100 11 5m-16 66 14 6m-14-6-5-15m26 34-7-13m77-121 8-5m-32 9 8 2m-93 88 13 6m147 45-9-1m-87-125 6-10m58 140 7-4m-96-11 16 3m56 12-9-5m-104-66 11-10 1-15m31-30 9 4m29 121 7-5m-76-90 13-9m-23 50-2-16m11 47 9-10m45 32-8-10m-32-93 4-13m90-36 16-4m-63 18 15-5m-96 100 11-10m111 55h17m-97-8 8-7m-53-62 12 6m29-47 14-8m22 124 16 1m-80-100 11 5m-16 67 15 5m-15-5-5-16m26 34-6-13m124-134h9m-33 4h8m-32 9 8-6m-31 9 8 2m-94 89 13 6m164 42 7-1m-23 4h-9m-87-126 6-10m57 140 7-4m-96-11 16 3m57 13-9-6m-105-66 12-10v-15m31-30 10 4m29 122 7-6m-77-90 13-9m-23 50-2-16m11 47 9-9m45 31-8-10m-32-93 4-14m90-36 16-3m-62 18 15-6m-96 101 10-10m161 51 16-3m-65 8 16-1m-97-7 8-8m-53-62 12 6m29-48 14-7m22 124 17 2m-80-101 10 5m-16 67 15 5m-15-5-4-16m26 34-7-13m150-135 7-3m-33 4h10m-33 4 7-1m-31 9 8-5m-32 9 9 2m-95 89 14 6m195 33-8 5m-23 4 7-1m-23 4h-9m-88-126 6-10m58 140 7-3m-96-12 15 4m58 12-9-5m-106-67 12-10 1-15m30-30 10 3m29 123 7-6m-76-90 13-9m-24 50-2-16m11 47 9-9m46 31-9-9m112-151 16-1m-159 58 3-14m91-36 16-3m-63 18 15-6m-96 101 10-10m209 39 16-6m-63 18 16-3m-65 8 16-1m-97-7 8-8m-54-62 12 6m29-48 14-7m23 124 16 2m-80-102 11 6m-17 67 15 5m-15-5-4-16m193-118 9 5M712 832l-7-13m151-135 7-3m64 131-6 9m-91-136h9m-33 4 8-1m-32 9 8-5m-31 9 8 2m-95 90 14 5m211 27 8 2m-23 4-8 5m-24 4 8-1m-24 5-9-1m-88-126 6-10m58 141 8-4m-97-12 16 4m57 12-9-5m-106-67 12-10 1-15m30-31 10 4m29 123 8-6m-77-90 13-10m-24 52-2-17m218-91 17 1M681 823l9-9m46 32-8-10m111-151 17-1m-160 57 3-13m91-36 16-3m-63 18 16-6m-97 102 10-10m210 38 15-6m-63 19 16-4m-65 8h16m-97-8 8-8m-54-62 12 6m235-90 8 10m-214 32 14-8m23 126 16 1m-80-102 11 6m198-61 7-5m30 123 9 4m-261 6 15 5m-15-5-4-15m194-119 9 5M688 837l-7-14m151-135 7-3m65 131-7 9m-91-136 10-1m-33 4h7m-31 9 8-5m-32 9 8 2m-95 90 14 6m212 27 8 1m-24 4-8 5m-23 5 7-1m-23 4h-10m-88-128 6-9m59 141 7-4m-97-11 16 3m57 13-9-6m-106-67 12-10v-15m31-31 10 4m29 124 8-6m-78-91 14-10m-24 52-2-17m219-91 16 1m23 126 14-8m-261 20 9-10m46 32-8-10m202-137 7-7m-97-8h16m-160 57 3-13m92-36 16-4m-64 19 16-6m-98 102 11-10m210 38 16-5m-63 18 16-3m95-50-4 13m-157 45 17-1m-99-7 9-8m-55-63 13 6m235-90 9 10m-215 32 14-8m23 126 16 2m-81-103 11 6m264 40 13-9m-77-92 7-5m30 123 9 4m-262 6 15 6m279-58-1 16m-293 36-5-15m195-119 9 4m49 8 16 3M664 841l-7-13m151-137 8-3m64 132-6 10m-91-138h9m-33 4h8m-32 9 8-5m-32 9 8 2m-96 90 14 6m213 27 8 1m-23 5-8 5m-24 4 8-1m-24 4h-9m-89-128 6-9m59 141 7-3m145-150 7 14M664 841l15 4m58 12-9-5m-107-67 12-11m295-52 4 15m-299 37 1-15m279-42 15 5m-263 6 10 4m29 124 8-6m-78-91 13-10m-24 52-2-16m291 5 10 5m-81-103 17 2m22 126 15-8m-263 20 10-10m46 33-9-10m245-81 12 6m-54-63 8-7m-98-8 16-1m-161 58 4-13m92-36 16-4m-64 19 16-6m-98 102 10-10m299-53 10-11m-97 103 15-6m-63 18 16-3m96-50-4 13m-158 45 17-1m-99-7 9-8m-55-63 12 7m237-91 8 10m38 22 9-9m-262 19 14-8m23 127 16 1m-81-103 11 6m288-11 2 16m-25 35 13-9m-78-92 7-6m30 125 9 3m-263 7 15 5m281-58-1 16m-295 37-4-16m300-37 11-10m-116-73 10 5m48 8 16 3M639 845l-7-13m152-137 8-3m65 133-7 9m-91-138h9m-33 4h8m-32 9 7-6m-32 10 9 2m-96 90 14 6m296-70 13 7m-95 90 8 2m-24 4-8 5m-24 4 8-1m-24 5-9-1m-89-128 6-10m59 143 7-4m145-150 7 14M639 845l16 4m58 13-9-6m-107-67 12-11m295-52 5 15m-300 37v-15m280-42 15 5m-263 6 10 4m29 125 8-6m-79-92 14-10m-24 52-2-16m291 5 11 5m-81-103 16 2m23 127 14-8m-263 19 9-9m46 32-8-10m246-81 12 6m-54-63 7-7m-98-8 16-1m-161 58 3-13m92-37 17-3m-64 18 15-5m-98 102 11-10m300-53 10-11m-98 103 16-6m-64 19 16-4m96-50-4 14m-158 45 17-1m-99-7 8-9m-55-62 13 6m237-91 9 9m38 23 8-9m-263 19 15-8m22 127 17 2m-82-103 11 5m290-11 2 16m-26 35 13-9m-78-92 8-6m29 125 10 4m-264 6 15 5m281-58-1 16m-295 37-5-16m301-37 12-10m-117-73 10 5m49 7 16 4M614 850l-6-14m152-137 8-3m65 133-6 9m-92-138h9m-34 4 8-1m-32 10 8-6m-32 10 9 1m-97 91 14 6m297-70 14 7m-96 91 8 1m-24 5-8 4m-24 5 8-1m-24 4h-9m-89-129 5-10m59 143 8-3m146-151 7 13M614 850l17 4m58 12-9-5m-108-68 12-10m297-53 4 15m-301 38 1-16m281-43 15 6m-265 6 10 4m29 125 8-6m-78-92 13-9m-24 51-2-16m292 5 11 5m-81-103 16 2m23 127 14-8m-264 20 10-10m46 32-8-9m246-82 12 6m-54-63 8-8m-99-7 16-1m-162 59 3-14m93-37 16-3m-64 18 16-5m-99 103 11-11m301-53 10-11m-98 104 16-6m-64 18 16-3m96-50-4 13m-158 45 16-1m-99-7 8-8m-55-63 13 6m238-91 9 9m38 23 9-10m-265 20 15-8m23 128 16 1m-82-103 12 5m290-11 2 16m-26 36 13-10m-78-92 8-6m29 125 10 4m-265 7 15 5m282-59-1 16m-296 38-5-16m302-38 12-10m-117-73 9 5m50 7 16 4M590 854l-7-13m153-138 8-3m65 133-6 10m-93-139h9m-33 4 8-1m-32 10 8-6m-33 10 9 1m-97 92 14 6m299-70 13 6m-96 91 8 2m-24 4-8 5m-24 4 8-1m-25 5-9-1m-89-129 6-10m59 144 8-4m146-151 7 13M590 854l16 4m58 13-9-6m-108-68 12-10m298-53 5 16m-303 37 1-16m282-43 15 6m-266 6 10 4m30 126 8-7m-79-92 13-9m-24 52-2-17m294 5 10 6m-82-104 17 2m23 127 14-8m-265 20 10-9m46 32-8-10m247-82 12 6m-54-63 8-8m-100-7 17-1m-163 59 3-14m94-37 16-3m-64 18 15-5m-99 103 11-10m302-54 11-10m-99 103 16-6m-65 19 17-4m96-50-4 13m-159 46 17-1m-100-8 9-8m-56-63 13 6m239-91 9 9m38 23 9-10m-266 20 15-8m23 128 17 2m-83-104 12 5m291-11 2 16m-26 36 14-10m-79-92 7-6m30 126 10 3m-266 7 15 5m284-58-1 15m-298 38-5-16m304-37 11-11m-117-73 9 5m50 7 16 4M565 859l-7-14m154-138 7-3m66 134-6 9m-93-139h9m-34 4 9-1m-33 10 8-6m-33 10 10 1m-98 92 14 6m300-70 13 6m-97 92 9 1m-25 4-7 5m-25 5 8-1m-24 4h-9m-90-130 6-10m59 144 8-3m147-152 7 13M565 859l16 3m58 13-8-5m-109-69 12-10m299-53 5 16m-304 37 1-16m283-43 15 6m-267 6 10 4m30 126 8-6m-79-93 13-9m-24 52-2-17m294 6 11 5m-82-104 17 2m23 128 14-8m-266 20 10-10m46 33-8-11m248-81 13 6m-55-64 8-8m-100-7 17-1m-164 59 3-14m94-37 16-3m-64 18 15-6m-99 104 11-10m303-54 11-10M738 857l16-5m-64 18 16-3m97-51-4 14m-160 45 17-1m-100-7 9-8m-56-64 13 6m240-91 8 9m39 23 9-10m-267 20 15-8m23 129 17 1m-83-104 12 5m292-11 2 17m-26 35 13-9m-79-93 8-6m30 126 10 4m-267 6 15 6m284-59-1 16m-298 37-5-16m304-37 12-10m-117-74 9 5m49 7 17 4M540 863l-7-13m154-139 8-3m65 134-6 10m-93-140h9m-33 4 8-1m-33 9 8-5m-33 10 10 1m-98 92 14 6m300-70 14 6m-97 92 8 1m-24 5-8 5m-25 4 9-1m-25 5-9-1m-90-130 6-10m59 145 8-4m148-152 7 13M540 863l16 4m58 13-8-6m-109-68 12-11m300-53 4 16m-304 37v-16m285-43 15 6m-268 6 10 4m30 127 8-6m-80-94 14-9m-24 52-2-16m295 5 11 5m-82-104 16 2m23 128 15-8m-267 20 10-10m46 33-8-10m249-82 12 6m-55-64 8-8m-100-7 17-1m-164 59 3-14m94-37 17-3m-65 18 15-5m-99 104 11-11m304-54 10-10m-99 104 16-6m-65 19 16-4m98-50-4 13m-161 46 17-1m-100-7 9-9m-57-63 14 6m240-92 9 9m38 23 10-10m-268 20 15-8m23 129 17 2m-83-105 11 5m294-11 2 17m-26 36 13-10m-79-93 8-6m30 126 9 4m-268 7 16 5m285-59-1 16m-300 38-4-16m305-38 12-10m-118-74 9 5m50 7 16 4M514 868l-6-14m154-139 8-3m66 135-6 9m-93-140h8m-34 4 9-1m-33 10 8-6m-33 10 10 1m-99 93 15 6m301-71 14 6m-98 93 9 1m-25 5-8 4m-24 5 8-1m-25 4h-9m-90-131 5-10m60 146 8-4m148-153 7 14M514 868l17 4m58 12-8-5m-110-69 12-10m301-54 5 16m-306 38 1-16m285-43 15 5m-269 7 11 3m29 127 9-6m-80-93 14-10m-25 53-2-17m297 5 11 6m-83-105 17 2m23 129 15-9m-269 21 10-10m46 33-7-10m250-83 12 6m-55-64 8-8m-101-7 17-1m-164 59 3-13m94-38 16-3m-65 18 16-5M462 837l11-10m306-55 10-10M689 867l16-6m-65 18 17-3m97-51-3 13m-162 46h17m-101-8 9-8m-56-64 13 6m242-92 8 9m39 23 9-9m-268 20 14-8m23 129 17 1m-83-105 12 6m295-12 2 17m-27 36 14-10m-80-93 8-6m30 127 10 4m-269 6 15 6m287-60-1 16m-301 38-5-16m307-38 12-10m-119-74 9 5m50 7 17 4M489 872l-7-13m155-140 8-3m66 135-6 10m-94-141h9m-34 4 9-1m-33 10 8-6m-33 10 9 1m-99 93 15 6m303-71 14 6m-99 93 9 2m-25 4-7 5m-25 5 8-2m-25 5h-9m-91-131 6-10m60 145 8-4m149-153 7 14M489 872l16 4m59 13-9-6m-110-69 13-10m302-54 5 16m-307 38v-16m287-43 15 5m-270 7 11 4m29 127 8-6m-80-94 14-10m-25 53-2-17m298 6 11 5m-83-105 17 2m23 129 15-8m-270 20 11-10m46 33-8-10m251-83 13 6m-56-64 8-8m-101-7 17-1m-165 59 3-13m95-38 16-3m-65 19 16-6M436 842l11-11m307-55 11-10M664 871l16-6m-65 19 17-3m98-52-4 14m-162 46 17-1m-102-7 10-9m-57-64 13 6m243-92 8 9m39 23 10-9m-270 20 15-8m23 129 17 2m-84-105 12 5m296-12 2 17m-26 36 13-9m-80-94 8-6m30 127 10 4m-270 7 15 5m288-59-1 16m-302 38-5-16m308-38 12-11m-119-74 9 5m50 7 17 4M463 877l-7-14m156-140 8-3m66 136-6 9m-94-141h9m-34 4 9-1m-33 10 7-6m-33 10 10 2m-99 93 14 6m304-72 14 6m-99 94 9 1m-25 5-7 5m-26 4 9-1m-25 5-9-1m-91-131 5-10m61 146 8-4m149-154 7 14M463 877l16 4m59 13-8-6m-111-69 13-11m303-54 5 16m-308 38v-16m288-43 15 5m-271 7 11 4m29 128 9-7m-81-94 14-9m-24 53-3-17m299 5 12 5m-84-105 17 2m23 130 15-9m-271 21 11-10m46 33-8-10m252-83 13 6m-56-65 8-8m-101-7 17-1m-166 60 3-14m95-38 17-3m-66 19 16-6M410 846l12-10m307-55 11-11M639 876l16-6m-65 19 16-4m99-51-4 13m-163 47 18-1m-102-8 9-8m-57-64 13 6m244-93 8 9m39 23 10-9m-271 20 15-8m23 130 17 2m-84-106 12 5m297-11 2 17m-26 36 13-10m-80-94 8-6m30 128 10 4m-271 6 15 6m289-60-1 16m-303 38-5-16m309-38 12-10m-119-75 9 5m50 7 17 4M437 882l-7-14m156-141 9-3m66 136-6 10m-94-142h8m-34 4 9-1m-33 10 7-6m-33 10 10 2m-100 93 15 6m305-71 14 6m-99 93 9 2m-25 4-8 5m-25 5 9-1m-26 4h-8m-92-132 5-10m61 147 8-4m150-155 7 14M437 882l17 3m59 13-9-5m-111-70 13-10m304-55 5 17m-309 38v-16m289-44 15 5m-272 7 11 4m29 128 9-6m-81-94 14-10m-25 53-2-17m300 6 12 5m-84-106 17 2m23 130 15-8m-272 20 11-10m46 34-7-11m252-83 13 6m-56-65 8-8m-102-7 17-1m-166 60 3-14m95-38 17-3m-66 19 16-6M384 851l11-11m309-55 11-10M614 880l16-6m-66 19 17-3m99-52-4 14m-163 46h17m-103-8 10-8m-57-65 13 6m245-93 8 10m39 23 10-10m-272 20 15-8m23 131 17 1m-84-106 12 6m298-12 2 17m-26 36 13-9m-81-95 9-6m30 129 10 3m-273 7 16 5m290-59-1 16m-305 38-4-16m310-38 12-11m-120-75 9 5m51 8 17 3M411 886l-7-14m157-141 8-3m67 137-6 9m-95-142h9m-35 4 9-1m-33 10 8-5m-34 9 10 2m-100 94 15 6m306-72 14 6m-100 94 10 1m-26 5-7 5m-26 5 9-2m-26 5h-8m-92-133 5-10m61 147 9-4m150-155 7 14M411 886l16 4m60 13-9-6m-111-69 13-11m305-54 5 16m-310 38v-16m290-44 15 6m-273 6 11 4m29 129 9-6m-81-95 14-10m-25 54-2-17m301 5 12 5m-85-106 17 2m24 131 15-8m-273 20 10-10m47 34-8-11m254-84 13 7m-57-65 9-8m-102-8 17-1m-167 60 3-14m96-37 16-4m-66 19 16-6m220 40 11-10M588 885l16-6m-66 19 17-3m99-52-3 14m-164 46 17-1m-103-7 10-9m201-152 9 10m39 23 10-10m-273 20 15-8m23 132 17 1m-85-106 13 5m299-12 2 17m-27 37 14-10m-81-95 8-6m30 129 11 4m33-48-1 16m1-16 12-11m-120-75 9 5m51 8 16 4M384 891l-6-14m157-142 9-3m66 137-6 10m-95-143h9m-35 4h10m-34 9 8-5m-34 9 10 2m222 28 14 6m-100 95 9 1m-25 5-8 5m-26 4 9-1m-26 5-8-1m-92-133 5-10m61 148 9-4m150-155 7 13M384 891l17 4m60 13-9-6m208-135 5 16m-21-22 16 6m-275 7 12 3m29 130 9-6m208-63 11 5m-84-107 17 2m23 131 15-8m-216 44-8-10m255-84 13 6m-57-65 9-8m-103-8 17-1m-168 61 3-14m97-38 16-4m-66 19 16-6m221 41 11-11M563 890l16-6m-67 19 17-4m100-51-4 13m-164 47 17-1m109-169 8 10m39 23 10-10m-274 21 15-8m24 131 17 2m228-113 2 17m-27 37 14-10m-82-96 9-6m30 130 10 3m33-47v16m0-16 13-11m-121-76 9 5m51 8 17 4m-103-13 9-3m67 138-6 10m-96-144h9m-35 4h10m-34 9 7-5m-33 9 10 2m222 28 15 7m-101 95 10 1m-26 5-8 4m-26 5 9-1m-26 5-8-1m-93-133 6-10m61 148 9-4m151-156 7 14M434 913l-8-6m208-136 5 16m-20-21 15 5M400 912l9-7m208-63 12 6m-85-108 17 2m24 132 15-8m30-51 13 7m-57-66 9-8m-103-8 17-1m-69 9 17-4m-66 20 16-7m221 41 11-11M537 895l16-6m-67 19 17-4m100-52-3 14m-166 47 18-1m109-170 8 10m40 23 10-9m9 32 2 17m-27 37 14-10m-82-96 9-6m30 131 11 3m33-48-1 16m1-16 12-11m-121-76 9 5m51 8 17 4m-103-13 9-3m67 139-6 10m-96-145h8m-34 5 9-1m-33 9 7-5m-34 10 11 2m222 28 15 6m-101 95 10 2m-26 4-8 5m-26 5 9-1m-26 5-8-1m-27 5 9-4m152-157 7 14M408 918l-8-6m209-137 4 17m-20-22 16 5m-18 72 12 5m-85-108 17 2m24 133 15-8m30-51 14 6m-58-66 9-8m-104-8 18-1m-69 9 17-3m171 54 11-11M511 899l16-6m-67 20 17-4m100-52-3 14m-166 47 17-1m110-171 8 10m40 24 10-10m9 33 2 17m-27 37 14-10m-82-97 9-6m30 131 11 4m33-48-1 16m1-16 12-11m-121-77 8 6m52 7 17 4m-104-12 9-4m68 140-6 9m-96-144 8-1m-35 5 10-1m-34 10 7-6m201 40 14 7m-101 95 10 1m-27 5-7 5m-26 5 9-1m-27 4h-8m135-157 7 14m16 6 5 16m-21-22 16 6m-18 72 12 5m-86-108 18 1m24 134 15-9m31-51 13 7m-58-66 9-9m-104-8h17m-69 8 17-3m172 54 12-11M484 904l17-6m-68 19 18-3m100-53-3 14m-39-125 8 11m40 23 10-10m9 33 3 17m-28 37 14-9m-83-97 9-6m31 131 11 4m33-49-1 17m1-17 13-11m-123-76 9 5m52 8 17 4m-104-13 9-4m67 140-5 10m-97-145h8m150 48 14 6m-102 96 10 1m-26 5-7 5m-27 5 9-2m101-152 7 14m16 5 5 17m-21-22 16 5m-18 72 12 5m-86-108 17 2m24 133 16-8m30-51 14 6m-58-66 9-8m-105-8 18-1m120 60 12-11M458 909l16-6m51-37-3 14m-40-125 9 10m39 24 11-10m9 33 2 17m-27 37 14-10m-83-97 9-6m30 132 11 3m34-48-1 16m1-16 12-11m-122-77 8 5m53 8 17 4m-105-13 9-3m68 140-6 10m61-98 15 7m-102 96 10 1m-27 5-7 5m84-150 6 14m16 6 5 16m-21-22 16 6m-17 72 12 5m-87-109 18 2m24 134 15-8m31-52 14 7m-59-67 10-8m33 51 11-11M431 914l17-6m50-37-3 14m-39-126 8 10m40 24 10-10m10 33 2 17m-28 38 15-10m-84-98 9-6m31 133 11 3m33-49v17m0-17 13-11m-123-77 8 6m53 7 17 4m-28 125-5 10m61-98 15 6m-43-43 7 14m16 6 5 17m-21-23 16 6m-18 73 12 5m-87-109 18 1m24 135 16-8m30-52 14 6m-59-66 10-9m33 52 12-11m-37 66-3 14m-40-127 8 11m40 24 11-11m9 34 2 17m-27 38 14-10m-44 29 11 3m33-49v17m0-17 13-11m-62-64 17 4m28 36 15 7m-43-43 7 14m16 6 5 16m-21-22 16 6m-18 72 13 6m1-33 13 6m-59-67 10-8m33 51 12-11m-37 67-3 13m8-92 11-10m9 33 3 18m-28 38 14-11m1-16-1 16m1-16 13-11m-18-24 15 6m-43-43 7 14m16 6 5 17m-21-23 16 6m-4 46 14 6m-17-24 12-11m-12 11 3 18" fill="none" stroke="gray" stroke-width="2"/><g font-size="30"><text x="25" y="325">a</text><text x="375" y="325">b</text><text x="700" y="325">c</text><text x="25" y="650">d</text><text x="375" y="650">e</text><text x="700" y="650">f</text><text x="25" y="975">g</text><text x="375" y="975">h</text></g></svg>