<svg width="251mm" height="200mm" version="1.1" viewBox="0 0 251 200" xmlns="http://www.w3.org/2000/svg" xmlns:xlink="http://www.w3.org/1999/xlink">
 <defs><radialGradient id="k" cx="285" cy="272" r="4" gradientTransform="matrix(2.25 0 0 1.25-418-210)" gradientUnits="userSpaceOnUse"><stop stop-color="#fec" offset="0"/><stop stop-color="#520" offset="1"/></radialGradient><radialGradient id="j" cx="101" cy="269" r="4" gradientTransform="matrix(1.72 .43-.75 3 53.7-724)" gradientUnits="userSpaceOnUse"><stop stop-color="#808" offset="0"/><stop stop-color="#525" stop-opacity="0" offset="1"/></radialGradient><radialGradient id="i" cx="197" cy="303" r="2" gradientTransform="matrix(1.5 0 0 1.5-164-298)" gradientUnits="userSpaceOnUse"><stop stop-color="#299" offset="0"/><stop stop-color="#cff" offset="1"/></radialGradient></defs>
 <rect width="251" height="200" fill="#fff"/><use transform="translate(2-57)" xlink:href="#a"/><use transform="translate(6-57)" xlink:href="#a"/><use transform="translate(9-56)" xlink:href="#a"/><use transform="translate(13-55)" xlink:href="#a"/><use transform="translate(15-52)" xlink:href="#a"/><use transform="translate(17-49)" xlink:href="#a"/><use transform="translate(17-44)" xlink:href="#a"/><path d="m77 139 120-1c69-1 62-122 0-122h-123c-51 0-62 123 3 123z" fill="#d97" stroke="#830"/><path d="m88.11 152.3h111c69-1 60-122 0-122h-115c-51 0-61 122 4 122z" fill="#fdc" stroke="#a40" stroke-width="3"/><path d="m133 124h2l-3 7-4-7h2c-13-28-42-18-47-12-1-4-2-8-6-8 5-10 49-27 56 20z"/><path d="m153 130c-7-21 20-55 53-28l4-4 4 18-19-3 5-4c-16-13-46-6-47 21z"/><circle id="a" cx="221" cy="132" r="3" fill="url(#k)" opacity=".9"/><use transform="translate(-5)" xlink:href="#a"/><use transform="translate(-10)" xlink:href="#a"/><use transform="translate(-15)" xlink:href="#a"/><use transform="translate(-34-13)" xlink:href="#a"/><use transform="translate(-34-9)" xlink:href="#a"/><use transform="translate(12-38)" xlink:href="#a"/><use transform="translate(8-37)" xlink:href="#a"/><use transform="translate(16-41)" xlink:href="#a"/><use transform="translate(-20)" xlink:href="#a"/><use transform="translate(-30-12)" xlink:href="#a"/><use transform="translate(-30-8)" xlink:href="#a"/><use transform="translate(5-38)" xlink:href="#a"/><use transform="translate(2.4-40)" xlink:href="#a"/><use transform="translate(3-44)" xlink:href="#a"/><use transform="translate(6-47)" xlink:href="#a"/><use transform="translate(10-47)" xlink:href="#a"/><use transform="translate(12-44)" xlink:href="#a"/><use transform="translate(13-39)" xlink:href="#a"/><use transform="translate(13-35)" xlink:href="#a"/><use transform="translate(12-32)" xlink:href="#a"/><use transform="translate(1-28)" xlink:href="#a"/><use transform="translate(-1-24)" xlink:href="#a"/><use transform="translate(5-29)" xlink:href="#a"/><use transform="translate(10-28)" xlink:href="#a"/><use transform="translate(9-24)" xlink:href="#a"/><use transform="translate(6-21)" xlink:href="#a"/><use transform="translate(2-21)" xlink:href="#a"/><use transform="translate(14-22)" xlink:href="#a"/><use transform="translate(14-18)" xlink:href="#a"/><use transform="translate(13-14)" xlink:href="#a"/><circle id="b" cx="27" cy="127" r="4" fill="url(#j)"/><use transform="translate(30-11)" xlink:href="#b"/><use transform="translate(45-17)" xlink:href="#b"/><use transform="translate(12)" xlink:href="#b"/><use transform="translate(31 40)" xlink:href="#b"/><use transform="translate(42 1)" xlink:href="#b"/><use transform="translate(50 12)" xlink:href="#b"/><use transform="translate(9 14)" xlink:href="#b"/><use transform="translate(20 9)" xlink:href="#b"/><use transform="translate(37 25)" xlink:href="#b"/><use transform="translate(-5 11)" xlink:href="#b"/><circle id="c" cx="132" cy="157" r="2" fill="url(#i)"/><use transform="translate(0-16)" xlink:href="#c"/><use transform="translate(28-9)" xlink:href="#c"/><use transform="translate(-2-10)" xlink:href="#c"/><use transform="translate(9 2)" xlink:href="#c"/><use transform="translate(19-1)" xlink:href="#c"/><use transform="translate(10 8)" xlink:href="#c"/><use transform="translate(23 5)" xlink:href="#c"/>
 <g id="d"><path d="m74 72c3-13 28-15 33 1" fill="none" stroke="#000" stroke-width=".7"/><path d="m73 74v-4l1 2 2-1"/></g>
 <use transform="matrix(1 0 0-1 0 123)" xlink:href="#d"/><use transform="rotate(-90 118.5 60.5)" xlink:href="#d"/><use transform="rotate(90 112.8 113.3)" xlink:href="#d"/> <use transform="rotate(180 90 78)" xlink:href="#d"/><use transform="matrix(-.87-.5-.5 .87 213 102)" xlink:href="#d"/>
 <g id="e"><path d="m106 38 2-4-2 1-2-1"/><path d="m106 35v-21" stroke="#000" stroke-width=".7"/></g>
 <use transform="rotate(180 89 25)" xlink:href="#e"/><use transform="rotate(180 126.5 92)" xlink:href="#e"/><use transform="rotate(30-127 77)" xlink:href="#e"/><use transform="rotate(210 96 85)" xlink:href="#e"/>
 <g font-family="Times" font-size="9px">
 <g text-anchor="middle"><text x="33" y="152">Nutrients<tspan x="33" y="161">Carbon substrates</tspan></text><text x="147" y="176">Minerals<tspan x="147" y="185">Nitrogen substrates</tspan><tspan x="147" y="194">Growth factors</tspan></text><text x="214" y="127">Biomass</text><text x="143" y="136">Intermediates</text><text x="72" y="81">NAD+</text><text x="104" y="81">NADH</text><text x="142" y="75">ADP</text><text x="143" y="110">ATP</text></g>
 <text id="h" x="65" y="45">H<tspan baseline-shift="sub" font-size="6px">2</tspan>O</text><text id="g" x="101" y="45">O<tspan baseline-shift="sub" font-size="6px">2</tspan></text><text id="f" x="84" y="168">CO<tspan baseline-shift="sub" font-size="6px">2</tspan></text><use transform="translate(0-37)" xlink:href="#h"/><use transform="translate(1-37)" xlink:href="#g"/><use transform="translate(16-30)" xlink:href="#f"/>
 <g fill="#fff" font-size="7.5px"><text x="84" y="104">Catabolism</text><text x="164" y="102">Anabolism</text></g></g></svg>