<?xml version="1.0" encoding="UTF-8"?>
<svg xmlns="http://www.w3.org/2000/svg" xmlns:xlink="http://www.w3.org/1999/xlink" clip-rule="evenodd" stroke-miterlimit="10" viewBox="0 0 237.60 244.80">
    <desc>SVG generated by Lineform</desc>
    <defs/>
    <g>
        <g>
            <path d="M 143.09 208.41 L 143.09 187.90 L 145.84 187.90 L 148.58 187.90 L 148.58 196.38 L 148.58 204.86 L 159.24 204.86 L 169.89 204.86 L 169.89 196.38 L 169.89 187.90 L 172.64 187.90 L 175.39 187.90 L 175.39 208.41 L 175.39 228.91 L 172.64 228.91 L 169.89 228.91 L 169.89 219.29 L 169.89 209.67 L 159.24 209.67 L 148.58 209.67 L 148.58 219.29 L 148.58 228.91 L 145.84 228.91 L 143.09 228.91 L 143.09 208.41 Z M 18.00 174.96 L 18.00 154.46 L 20.75 154.46 L 23.50 154.46 L 23.50 162.93 L 23.50 171.41 L 34.15 171.41 L 44.80 171.41 L 44.80 162.93 L 44.80 154.46 L 47.55 154.46 L 50.30 154.46 L 50.30 174.96 L 50.30 195.46 L 47.55 195.46 L 44.80 195.46 L 44.80 185.84 L 44.80 176.22 L 34.15 176.22 L 23.50 176.22 L 23.50 185.84 L 23.50 195.46 L 20.75 195.46 L 18.00 195.46 L 18.00 174.96 Z M 131.05 169.43 L 125.58 153.69 L 126.13 153.33 C 126.43 153.13 127.16 152.69 127.76 152.34 L 128.85 151.72 L 139.63 164.19 C 145.57 171.06 150.42 176.75 150.42 176.86 C 150.42 177.01 136.85 185.16 136.60 185.16 C 136.55 185.16 134.06 178.08 131.05 169.43 Z M 185.70 152.74 L 185.70 132.23 L 188.45 132.23 L 191.20 132.23 L 191.20 140.71 L 191.20 149.19 L 201.85 149.19 L 212.50 149.19 L 212.50 140.71 L 212.50 132.23 L 215.25 132.23 L 218.00 132.23 L 218.00 152.74 L 218.00 173.24 L 215.25 173.24 L 212.50 173.24 L 212.50 163.62 L 212.50 154.00 L 201.85 154.00 L 191.20 154.00 L 191.20 163.62 L 191.20 173.24 L 188.45 173.24 L 185.70 173.24 L 185.70 152.74 Z M 58.92 160.36 L 58.03 158.71 L 58.56 158.36 C 58.85 158.17 66.16 153.92 74.80 148.93 L 90.51 139.86 L 91.36 141.37 C 91.83 142.21 92.22 142.99 92.22 143.13 C 92.23 143.31 60.16 162.03 59.87 162.01 C 59.84 162.01 59.41 161.27 58.92 160.36 Z M 173.92 150.66 C 173.05 150.36 172.31 150.08 172.27 150.04 C 172.20 149.97 174.84 140.04 174.97 139.90 C 175.06 139.81 178.34 140.61 178.49 140.76 C 178.56 140.83 177.49 145.07 176.06 150.39 C 175.93 150.86 175.76 151.24 175.67 151.23 C 175.58 151.22 174.79 150.97 173.92 150.66 Z M 110.20 150.02 C 106.98 149.49 104.79 148.61 102.53 146.93 C 97.25 143.00 94.20 134.14 95.19 125.62 C 96.24 116.62 100.98 110.80 109.07 108.60 C 111.49 107.95 116.76 107.88 119.03 108.48 C 122.67 109.44 125.86 111.63 127.98 114.66 C 128.92 116.00 130.67 119.78 130.44 119.98 C 130.40 120.01 129.29 120.27 127.97 120.55 C 126.64 120.84 125.45 121.11 125.32 121.16 C 125.19 121.21 124.68 120.36 124.19 119.26 C 122.21 114.86 118.88 112.75 113.92 112.77 C 107.31 112.78 102.80 116.42 101.16 123.08 C 100.54 125.57 100.33 129.87 100.69 132.58 C 101.00 134.91 102.02 138.19 102.91 139.72 C 106.05 145.08 114.05 147.14 119.80 144.09 C 122.44 142.68 124.60 139.85 125.56 136.53 C 125.77 135.81 125.95 135.22 125.98 135.22 C 126.33 135.26 131.24 136.57 131.30 136.64 C 131.46 136.80 130.38 139.80 129.63 141.29 C 128.64 143.24 126.98 145.37 125.48 146.60 C 123.99 147.82 121.13 149.24 119.15 149.77 C 117.26 150.26 112.50 150.39 110.20 150.02 Z M 162.01 147.46 C 161.14 147.15 160.40 146.87 160.36 146.84 C 160.28 146.76 162.93 136.83 163.06 136.70 C 163.15 136.61 166.43 137.40 166.58 137.55 C 166.64 137.62 165.57 141.86 164.15 147.18 C 164.02 147.66 163.84 148.03 163.75 148.03 C 163.66 148.02 162.88 147.76 162.01 147.46 Z M 150.10 144.25 C 149.23 143.94 148.48 143.67 148.45 143.63 C 148.37 143.55 151.02 133.62 151.15 133.49 C 151.24 133.40 154.52 134.20 154.66 134.34 C 154.73 134.41 153.66 138.65 152.23 143.98 C 152.11 144.45 151.93 144.83 151.84 144.82 C 151.75 144.81 150.97 144.55 150.10 144.25 Z M 137.95 141.04 C 137.08 140.74 136.34 140.46 136.30 140.42 C 136.23 140.35 139.10 130.41 139.24 130.28 C 139.32 130.19 142.60 130.99 142.74 131.13 C 142.79 131.17 142.31 133.01 141.69 135.21 C 139.98 141.30 139.88 141.63 139.70 141.61 C 139.61 141.60 138.82 141.34 137.95 141.04 Z M 111.47 82.98 L 111.47 63.51 L 113.30 63.51 L 115.14 63.51 L 115.14 82.98 L 115.14 102.45 L 113.30 102.45 L 111.47 102.45 L 111.47 82.98 Z M 97.27 37.50 L 97.27 17.00 L 100.02 17.00 L 102.77 17.00 L 102.77 25.48 L 102.77 33.95 L 113.42 33.95 L 124.07 33.95 L 124.07 25.48 L 124.07 17.00 L 126.82 17.00 L 129.57 17.00 L 129.57 37.50 L 129.57 58.01 L 126.82 58.01 L 124.07 58.01 L 124.07 48.39 L 124.07 38.76 L 113.42 38.76 L 102.77 38.76 L 102.77 48.39 L 102.77 58.01 L 100.02 58.01 L 97.27 58.01 L 97.27 37.50 Z M 97.27 37.50 " fill="rgb(0, 0, 0)"/>
        </g>
    </g>
</svg>